<?xml version="1.0" encoding="UTF-8"?>
<!DOCTYPE svg PUBLIC "-//W3C//DTD SVG 1.1//EN" "http://www.w3.org/Graphics/SVG/1.1/DTD/svg11.dtd">
<!-- Creator: CorelDRAW X7 -->
<svg xmlns="http://www.w3.org/2000/svg" xml:space="preserve" width="11.9378mm" height="12.1918mm" version="1.1" style="shape-rendering:geometricPrecision; text-rendering:geometricPrecision; image-rendering:optimizeQuality; fill-rule:evenodd; clip-rule:evenodd"
viewBox="0 0 1194 1219"
 xmlns:xlink="http://www.w3.org/1999/xlink">
 <defs>
  <style type="text/css">
   <![CDATA[
    .fil0 {fill:#1D1819}
   ]]>
  </style>
 </defs>
 <g id="Layer_x0020_1">
  <metadata id="CorelCorpID_0Corel-Layer"/>
  <path class="fil0" d="M511 107l0 55 0 5 -104 53 -164 84c-5,2 -10,6 -14,10 -4,4 -7,8 -10,14l0 0 0 0 0 0 0 0 0 0 0 0 0 0 0 0 -1 0 0 1 0 0 0 0 0 0 0 0 0 0 0 0 0 0 0 0 0 0 0 0 0 1 0 0 0 0 0 0 0 0 0 0 0 0 0 0 0 0 0 0 0 0 -1 1 0 0 0 0 0 0 0 0 0 0 0 0 0 0 0 0 0 0 0 0c-1,3 -2,5 -2,8l0 0 0 0 0 0 0 0 0 0 -1 0 0 0 0 0c0,1 0,2 0,3 -1,3 -1,7 -1,10l0 0 0 0 0 0 0 0 0 0 0 1 0 0c0,0 0,1 0,1l0 7 0 14 0 0 26 13 0 0 0 0 4 2 53 27 0 0 0 0 112 56 162 81c4,2 8,4 12,5l0 0 0 0c5,2 10,2 15,2 5,0 9,0 14,-2 4,-1 8,-2 12,-4l0 -1 0 0 1 0 0 0 0 0 162 -81 112 -56 0 83 -149 75 -152 76 -152 -76 -128 -64 -21 -11 -37 -18 -46 -23 0 0 0 0 0 64c0,1 0,2 0,3l0 6 0 166 0 6 0 23 26 13c1,1 3,2 4,2l0 0 26 13 139 70 162 81c4,2 8,4 12,5l0 0c5,2 10,2 15,2 5,0 9,0 14,-1 4,-2 8,-3 12,-5l0 0 36 -18 0 -1 127 -63 112 -56 0 83 -149 74 -152 77 0 86 0 31 0 75 0 11 0 0c329,0 596,-267 596,-596 0,-261 -167,-482 -399,-563l7 -23 0 0c1,-3 1,-7 0,-10 -2,-11 -13,-18 -23,-15l-67 14 0 0 -65 15c-4,0 -7,2 -10,4 -8,8 -9,20 -2,28l46 51 0 0 0 0 45 49c2,3 6,5 10,7 10,3 21,-3 25,-13l8 -25c197,70 339,259 339,481 0,252 -183,462 -424,502l0 -60 103 -51 162 -82c9,-4 18,-10 23,-19 6,-9 10,-19 10,-30l0 -166 0 -6 0 0 0 -4 0 0 0 -27 0 -33 -52 26 -31 16 0 0 -43 21 -106 54 -152 76 -152 -76 -149 -75 0 -9 0 0 0 -74 112 56 162 82c4,2 8,3 12,5l0 0c5,1 10,2 15,2 5,0 9,-1 14,-2 4,-1 8,-3 12,-5l0 0 36 -18 0 0 127 -64 28 -14 0 0 44 -22 40 -20 24 -12 26 -13 0 0 6 -3 5 -3 22 -11 0 -19 0 -3c0,-1 0,-2 0,-3l0 -165 0 -7c0,-1 0,-2 0,-3l0 0 0 -3 0 -1 0 0c-1,-7 -3,-14 -7,-21 -4,-8 -10,-14 -18,-19 -2,-1 -3,-2 -5,-3 -6,-3 -9,-2 -15,0l-84 43 0 0 0 0 -103 51 -152 77 -152 -77 -103 -51 52 -27 0 0 51 -26 152 -77 0 -53 0 -34 0 -31 0 0 0 -85 0 0 0 0c-5,0 -10,0 -15,0l-1 0c-5,0 -9,0 -14,0l-2 0c-4,1 -8,1 -12,1l-4 1c-3,0 -7,0 -10,0 -2,1 -4,1 -6,1 -3,0 -5,1 -8,1 -3,0 -6,1 -8,1l-6 1c-288,41 -510,290 -510,590 0,260 167,481 399,562l-7 23 0 0c-1,3 -1,7 -1,10 3,11 13,18 24,16l67 -15 0 0 65 -14c4,-1 7,-3 10,-5 8,-8 9,-20 1,-28l-45 -51 0 0 0 0 -45 -49c-2,-3 -6,-5 -10,-7 -10,-3 -21,3 -25,13l-8 25c-198,-70 -339,-259 -339,-480 0,-253 183,-462 424,-503z"/>
 </g>
</svg>
