<?xml version="1.0" encoding="UTF-8"?>
<!DOCTYPE svg PUBLIC "-//W3C//DTD SVG 1.1//EN" "http://www.w3.org/Graphics/SVG/1.1/DTD/svg11.dtd">
<!-- Creator: CorelDRAW X7 -->
<svg xmlns="http://www.w3.org/2000/svg" xml:space="preserve" width="21.1666mm" height="21.6746mm" version="1.1" style="shape-rendering:geometricPrecision; text-rendering:geometricPrecision; image-rendering:optimizeQuality; fill-rule:evenodd; clip-rule:evenodd"
viewBox="0 0 2117 2167"
 xmlns:xlink="http://www.w3.org/1999/xlink">
 <defs>
  <style type="text/css">
   <![CDATA[
    .fil0 {fill:#1D1819}
   ]]>
  </style>
 </defs>
 <g id="Layer_x0020_1">
  <metadata id="CorelCorpID_0Corel-Layer"/>
  <path class="fil0" d="M906 192l0 98 0 9 -183 94 -293 149c-9,4 -17,10 -24,17 -7,7 -13,15 -18,25l0 0 0 0 0 0 0 1 0 0 0 0 0 0 0 0 0 0 0 1 -1 0 0 0 0 0 0 0 0 0 0 0 0 1 0 0 0 0 0 0 0 1 0 0 -1 0 0 0 0 0 0 0 0 0 0 1 0 0 0 0 0 0 0 0 0 0 0 0 0 1 0 0 0 0 -1 0 0 0 0 0 0 0 0 0c-2,5 -3,10 -4,14l0 0 0 0 0 0 0 1 0 0 0 0 0 0 -1 0c0,1 0,3 0,4 -2,6 -2,12 -2,18l0 0 0 0 0 0 0 1 0 0 0 0 0 1c0,0 0,1 0,2l0 12 0 25 0 0 47 23 0 0 0 0 6 4 94 47 0 0 0 0 198 99 288 144c7,4 14,7 21,9l0 0 0 0c9,3 18,4 26,4 9,0 17,-1 25,-3 7,-2 14,-5 21,-9l1 0 0 0 1 -1 0 0 1 0 286 -144 198 -99 0 148 -263 132 -270 135 -269 -135 -227 -113 -37 -19 -66 -33 -81 -41 0 0 0 0 0 115c0,1 0,3 0,5l0 11 0 293 0 11 0 41 47 24c2,1 4,2 6,3l0 0 46 23 246 123 288 145c7,3 14,7 21,9l0 0c8,2 17,3 26,3 9,0 17,-1 25,-3 7,-2 14,-5 21,-8l1 -1 64 -31 0 -1 224 -113 198 -99 0 147 -263 132 -270 135 0 154 0 54 0 133 0 19 0 0c584,0 1057,-473 1057,-1056 0,-461 -296,-854 -708,-998l13 -40 0 0c2,-6 2,-12 1,-18 -4,-19 -23,-31 -42,-27l-118 26 0 0 -116 25c-6,1 -13,4 -18,9 -14,13 -15,35 -2,49l81 90 0 -1 0 1 79 86c4,6 10,10 17,13 19,6 39,-5 45,-23l14 -45c350,125 602,459 602,853 0,447 -326,819 -753,891l0 -106 183 -92 288 -144c16,-7 31,-19 41,-34 11,-16 17,-34 17,-54l0 -294 0 -10 0 -1 0 -6 0 -1 0 -48 0 -58 -91 46 -57 29 0 0 -74 37 -189 95 -270 135 -269 -135 -264 -132 0 -17 0 0 0 -130 198 99 288 144c7,4 14,7 21,9l0 0c8,3 17,4 26,4 9,0 17,-1 25,-3 7,-2 14,-5 21,-9l1 0 64 -32 0 0 224 -113 50 -25 0 0 78 -39 70 -35 43 -22 47 -23 0 0 10 -5 9 -5 39 -19 0 -34 0 -6c0,-2 0,-4 0,-5l0 -293 0 -12c0,-1 0,-3 0,-5l0 -1 0 -4 0 -3 -1 0c-1,-13 -5,-25 -11,-36 -7,-14 -18,-26 -32,-35 -3,-2 -6,-4 -8,-5 -11,-5 -17,-4 -27,1l-149 75 0 0 -1 0 -182 91 -270 136 -269 -136 -183 -91 92 -47 0 0 91 -47 269 -137 0 -93 0 -60 0 -54 0 0 0 -153 0 0 0 0c-9,0 -17,0 -26,1l-2 0c-8,0 -16,0 -25,1l-3 0c-7,0 -15,1 -22,1l-6 1c-6,0 -12,1 -18,1 -4,1 -8,1 -12,1 -4,1 -9,1 -13,2 -5,1 -10,1 -15,2l-10 1c-511,74 -904,514 -904,1046 0,461 296,853 708,997l-13 41 0 0c-2,5 -2,12 -1,18 4,19 23,31 42,27l118 -26 0 0 115 -25c7,-1 13,-4 19,-9 14,-13 15,-35 2,-50l-81 -89 0 0 0 0 -79 -87c-5,-5 -11,-10 -18,-12 -18,-6 -38,4 -44,23l-14 44c-351,-124 -602,-459 -602,-852 0,-448 325,-819 752,-892z"/>
 </g>
</svg>
