<?xml version="1.0" encoding="UTF-8"?>
<!DOCTYPE svg PUBLIC "-//W3C//DTD SVG 1.1//EN" "http://www.w3.org/Graphics/SVG/1.1/DTD/svg11.dtd">
<!-- Creator: CorelDRAW X7 -->
<svg xmlns="http://www.w3.org/2000/svg" xml:space="preserve" width="42.2486mm" height="43.3492mm" version="1.1" style="shape-rendering:geometricPrecision; text-rendering:geometricPrecision; image-rendering:optimizeQuality; fill-rule:evenodd; clip-rule:evenodd"
viewBox="0 0 4225 4335"
 xmlns:xlink="http://www.w3.org/1999/xlink">
 <defs>
  <style type="text/css">
   <![CDATA[
    .fil0 {fill:#1D1819}
   ]]>
  </style>
 </defs>
 <g id="Layer_x0020_1">
  <metadata id="CorelCorpID_0Corel-Layer"/>
  <path class="fil0" d="M1808 385l0 195 0 19 -367 187 -585 297c-18,10 -34,21 -48,36 -14,14 -26,30 -36,49l0 0 0 1 0 0 0 0 0 0 -1 1 0 0 0 0 0 1 0 0 0 0 0 1 -1 0 0 0 0 1 0 0 -1 1 0 0 0 0 0 0 0 1 0 0 0 1 0 0 -1 0 0 0 0 1 0 0 0 0 0 1 0 0 -1 0 0 0 0 1 0 0 0 1 0 0 0 0 0 0 -1 1 0 0 0 0c-4,9 -7,18 -9,27l0 1 0 0 0 0 0 0 0 0 0 1 0 0 0 0c-1,2 -2,5 -2,8 -2,12 -4,24 -4,36l0 0 0 0 0 1 0 0 0 1 0 1 0 0c0,2 0,4 0,5l0 23 0 51 0 0 94 47 0 0 0 0 13 6 189 95 0 0 0 0 395 198 575 289c14,8 28,14 43,18l0 0 0 0c17,5 35,7 52,7 17,0 34,-2 50,-7 14,-3 28,-9 42,-16l2 -1 -1 0 4 -2 0 0 1 -1 572 -287 396 -198 0 296 -527 265 -539 270 -538 -270 -454 -228 -73 -37 -133 -66 -163 -82 0 0 0 0 0 229c0,4 0,7 0,10l0 23 0 586 0 23 0 81 94 47c4,3 8,5 13,7l0 0 91 46 493 247 575 288c14,8 28,14 43,18l0 0c17,5 34,8 52,8 17,0 34,-2 50,-7 14,-4 28,-9 42,-17l2 -1 128 -63 -1 -1 449 -225 396 -199 0 294 -527 265 -539 270 0 307 0 108 0 265 0 39 0 0c1167,0 2113,-946 2113,-2113 0,-922 -591,-1706 -1415,-1994l26 -81 0 0c3,-12 4,-24 1,-37 -8,-38 -46,-62 -84,-53l-235 51 0 0 -232 51c-13,2 -26,8 -36,17 -29,26 -31,71 -5,100l162 178 1 0 0 0 158 174c8,11 20,20 35,24 37,12 76,-8 88,-45l28 -89c702,249 1204,918 1204,1704 0,896 -650,1639 -1504,1783l0 -213 365 -183 575 -288c34,-15 62,-39 83,-68 21,-32 34,-69 34,-109l0 -586 0 -22 0 -1 0 -13 0 -1 0 -96 0 -115 -183 91 -113 57 0 0 -149 75 -378 190 -539 270 -538 -270 -527 -265 0 -33 -1 0 0 -261 396 199 575 288c14,8 28,14 43,18l0 0c17,5 34,8 52,8 17,0 34,-2 50,-7 14,-4 28,-9 42,-17l2 -1 128 -63 -1 -1 449 -225 100 -50 0 0 156 -78 140 -71 86 -43 93 -46 0 0 20 -10 18 -9 79 -40 0 -67 0 -12c0,-4 0,-7 0,-11l0 -586 0 -23c0,-3 0,-6 0,-10l0 -2 0 -8 -1 -6 0 0c-3,-26 -11,-50 -23,-73 -15,-28 -37,-52 -65,-70 -5,-3 -10,-7 -16,-10 -21,-10 -34,-7 -53,3l-299 150 0 0 -1 0 -365 183 -539 270 -538 -270 -366 -183 184 -94 0 0 183 -93 538 -274 0 -187 0 -121 0 -108 0 0 0 -304 0 0 -1 0c-17,0 -35,0 -53,0l-2 0c-17,1 -34,1 -50,2l-7 1c-15,0 -29,1 -44,2l-13 1c-12,1 -24,2 -36,4 -8,0 -15,1 -23,2 -9,1 -18,2 -26,3 -10,1 -20,2 -30,4l-20 3c-1023,147 -1808,1027 -1808,2090 0,923 591,1707 1415,1995l-26 81 0 0c-3,12 -4,24 -1,37 8,38 45,62 83,53l236 -51 0 0 231 -51c14,-2 26,-8 37,-17 29,-26 31,-71 5,-100l-163 -178 0 0 0 0 -158 -174c-8,-11 -20,-20 -35,-24 -37,-12 -77,8 -88,45l-29 89c-701,-249 -1203,-918 -1203,-1705 0,-895 650,-1638 1504,-1782z"/>
 </g>
</svg>
