<?xml version="1.0" encoding="UTF-8"?>
<!DOCTYPE svg PUBLIC "-//W3C//DTD SVG 1.1//EN" "http://www.w3.org/Graphics/SVG/1.1/DTD/svg11.dtd">
<!-- Creator: CorelDRAW X7 -->
<svg xmlns="http://www.w3.org/2000/svg" xml:space="preserve" width="4.0638mm" height="4.0638mm" version="1.1" style="shape-rendering:geometricPrecision; text-rendering:geometricPrecision; image-rendering:optimizeQuality; fill-rule:evenodd; clip-rule:evenodd"
viewBox="0 0 406 406"
 xmlns:xlink="http://www.w3.org/1999/xlink">
 <defs>
  <style type="text/css">
   <![CDATA[
    .fil2 {fill:#FEFEFE}
    .fil0 {fill:#1393D2}
    .fil1 {fill:#0083C4}
   ]]>
  </style>
 </defs>
 <g id="Layer_x0020_1">
  <metadata id="CorelCorpID_0Corel-Layer"/>
  <g id="_681014240">
   <rect class="fil0" width="406" height="406" rx="56" ry="56"/>
   <path class="fil1" d="M104 119l-3 3c1,-1 2,-2 3,-3zm137 287l-185 0c-31,0 -56,-25 -56,-55l0 -132 80 -106c24,-32 60,-55 101,-61l2 0c0,0 1,0 2,0 0,0 1,0 2,0 0,0 1,-1 1,-1 1,0 2,0 3,0l1 0c1,0 2,0 3,0l1 0c1,0 2,0 3,0l0 0c2,0 3,0 4,0l0 0 0 0 0 17 9 -12c1,0 1,0 1,0 1,-1 2,-2 3,-2l16 -3 0 0 17 -4c3,-1 6,1 7,4 0,1 0,2 -1,2l0 0 -1 6c59,21 102,78 102,144 0,37 -13,71 -35,97l-80 106zm-141 -283l-3 4c1,-1 2,-2 3,-4zm11 -12l-3 3c1,-1 2,-2 3,-3zm-4 4l-3 3c1,-1 2,-2 3,-3zm12 -12l-3 3c1,-1 2,-2 3,-3zm-4 4l-3 3c1,-1 2,-2 3,-3zm13 -11l-4 3c2,-1 3,-2 4,-3zm-4 3l-4 4c1,-1 3,-3 4,-4zm14 -9l-4 3c1,-1 3,-2 4,-3zm-5 3l-4 3c1,-1 3,-2 4,-3zm15 -8l-5 2c2,-1 3,-1 5,-2zm-5 2l-4 3c1,-1 3,-2 4,-3zm16 -7l-5 2c1,0 3,-1 5,-2zm-6 3l-4 2c1,-1 3,-2 4,-2zm17 -6l-5 2c1,-1 3,-2 5,-2zm-6 2l-5 1c2,0 3,-1 5,-1zm17 -4l-5 1c2,-1 3,-1 5,-1zm-6 1l-5 1c2,-1 3,-1 5,-1zm81 8l-4 -2c1,1 3,1 4,2zm-4 -2l-5 -2c1,1 3,1 5,2zm13 6l-4 -2c1,1 3,1 4,2zm-4 -2l-5 -2c2,1 3,1 5,2zm13 7l-5 -2c2,1 3,1 5,2zm-5 -2l-4 -3c2,1 3,2 4,3zm13 8l-4 -3c1,1 2,2 4,3zm-4 -3l-4 -3c1,1 2,2 4,3zm11 9l-3 -3c1,1 2,2 3,3zm-3 -3l-4 -3c1,1 2,2 4,3zm11 10l-4 -3c1,1 2,2 4,3zm-4 -3l-4 -4c2,1 3,2 4,4zm10 10l-3 -3c1,1 2,2 3,3zm-3 -3l-3 -4c1,1 2,2 3,4zm9 11l-3 -4c1,1 2,3 3,4zm-3 -4l-3 -4c1,2 2,3 3,4zm9 12l-3 -4c1,2 2,3 3,4zm-3 -4l-3 -4c1,1 2,3 3,4zm8 13l-3 -4c1,1 2,3 3,4zm-3 -4l-2 -5c1,2 1,3 2,5zm7 13l-2 -4c0,1 1,3 2,4zm-2 -4l-2 -5c0,2 1,3 2,5zm5 14l-1 -5c0,1 1,3 1,5zm-1 -5l-2 -5c0,2 1,3 2,5zm4 14l-1 -5c0,2 1,4 1,5zm-1 -5l-2 -4c1,1 1,3 2,4zm3 15l-1 -5c0,2 1,4 1,5zm-1 -5l-1 -5c0,2 1,4 1,5zm2 16l0 -6c0,2 0,4 0,6zm0 -6l-1 -5c0,2 1,4 1,5zm1 16l0 -5c0,2 0,3 0,5zm0 -5l-1 -5c0,1 1,3 1,5zm-1 17l1 -6c-1,2 -1,4 -1,6zm1 -6l0 -6c0,2 0,4 0,6zm-2 18l0 -6c0,2 0,4 0,6zm1 -6l0 -6c0,2 0,4 0,6zm-4 17l1 -5c0,1 0,3 -1,5zm1 -6l2 -5c-1,2 -1,4 -2,5zm-5 17l0 0c1,-2 2,-3 2,-5l-2 5zm2 -6l2 -5c-1,2 -1,4 -2,5zm-6 16l2 -4c0,1 -1,3 -2,4zm2 -5l2 -5c0,2 -1,3 -2,5zm-7 15l2 -4c-1,1 -1,3 -2,4zm2 -5l3 -4c-1,1 -2,3 -3,4zm-8 15l2 -4c-1,1 -1,2 -2,4zm3 -5l2 -4c0,1 -1,3 -2,4zm-4 5l0 0 -3 4c1,-1 2,-2 3,-4z"/>
   <path class="fil2" d="M181 74l0 15 0 1 -26 13 -42 22c-2,1 -3,1 -4,2 -1,1 -2,3 -3,4l0 0 0 0 0 0 0 0 0 0 0 0 0 0 0 0 0 0 0 0 0 0 0 0 0 0 0 0 0 0 0 0 0 0 0 0 0 0 0 0 0 1 0 0 0 0 0 0 0 0 0 0 0 0 0 0 0 0 0 0 0 0 0 0 0 0 0 0 0 0 0 0 0 0 0 0 0 0 0 0 0 0 0 0c0,1 0,1 -1,2l0 0 0 0 0 0 0 0 0 0 0 0 0 0 0 0c0,0 0,0 0,1 0,0 0,1 0,2l0 0 0 0 0 0 0 0 0 0 0 0 0 0c0,1 0,1 0,1l0 1 0 4 0 0 7 4 0 0 0 0 1 0 13 7 0 0 0 0 29 14 41 21c1,1 2,1 3,1l0 0 0 0c2,1 3,1 4,1 1,0 3,0 4,-1 1,0 2,0 3,-1l0 0 0 0 0 0 0 0 0 0 42 -21 28 -14 0 21 -38 19 -39 20 -39 -20 -32 -16 -6 -3 -9 -5 -12 -5 0 0 0 0 0 16c0,0 0,1 0,1l0 1 0 43 0 1 0 6 7 4c0,0 0,0 1,0l0 0 6 3 36 18 41 21c1,1 2,1 3,1l0 0c2,1 3,1 4,1 1,0 3,0 4,0 1,-1 2,-1 3,-2l0 0 9 -4 0 0 33 -17 28 -14 0 21 -38 19 -39 20 0 22 0 8 0 19 0 3 0 0c84,0 153,-69 153,-153 0,-66 -43,-123 -102,-144l1 -6 0 0c1,-1 1,-1 1,-2 -1,-3 -4,-5 -7,-4l-17 4 0 0 -16 3c-1,0 -2,1 -3,1 -2,2 -2,6 0,8l11 12 0 0 1 1 11 12c1,1 1,1 2,2 3,1 6,-1 7,-3l2 -7c50,18 87,66 87,123 0,65 -47,118 -109,129l0 -15 27 -14 41 -21c2,-1 5,-2 6,-4 2,-3 2,-5 2,-8l0 -43 0 -1 0 0 0 -1 0 0 0 -7 0 -8 -13 6 -8 4 0 0 -11 6 -27 13 -39 20 -39 -20 -38 -19 0 -2 0 0 0 -19 29 14 41 21c1,1 2,1 3,1l0 0c2,1 3,1 4,1 1,0 3,0 4,0 1,-1 2,-1 3,-2l0 0 9 -4 0 0 33 -17 7 -3 0 0 11 -6 10 -5 6 -3 7 -3 0 0 1 -1 2 -1 5 -3 0 -5 0 0c0,-1 0,-1 0,-1l0 -43 0 -1c0,0 0,-1 0,-1l0 0 0 -1 0 0 0 0c0,-2 0,-4 -1,-5 -1,-2 -3,-4 -5,-5 0,-1 -1,-1 -1,-1 -2,-1 -3,-1 -4,0l-22 11 0 0 0 0 -26 13 -39 20 -39 -20 -26 -13 13 -7 0 0 13 -7 39 -19 0 -14 0 -9 0 -7 0 0 0 -22 0 0 0 0c-1,0 -2,0 -4,0l0 0c-1,0 -2,0 -3,0l-1 0c-1,0 -2,0 -3,0l-1 0c-1,0 -2,0 -3,0 0,0 -1,0 -1,1 -1,0 -2,0 -2,0 -1,0 -2,0 -2,0l-2 0c-74,11 -130,74 -130,151 0,67 42,123 102,144l-2 6 0 0c0,1 0,2 0,3 0,2 3,4 6,4l17 -4 0 0 17 -4c1,0 2,0 2,-1 2,-2 3,-5 1,-7l-12 -13 0 0 0 0 -12 -13c0,0 -1,-1 -2,-1 -3,-1 -6,0 -6,3l-2 6c-51,-18 -87,-66 -87,-123 0,-64 47,-118 108,-129z"/>
  </g>
 </g>
</svg>
