<?xml version="1.0" encoding="UTF-8"?>
<!DOCTYPE svg PUBLIC "-//W3C//DTD SVG 1.1//EN" "http://www.w3.org/Graphics/SVG/1.1/DTD/svg11.dtd">
<!-- Creator: CorelDRAW X7 -->
<svg xmlns="http://www.w3.org/2000/svg" xml:space="preserve" width="12.1918mm" height="12.1918mm" version="1.1" style="shape-rendering:geometricPrecision; text-rendering:geometricPrecision; image-rendering:optimizeQuality; fill-rule:evenodd; clip-rule:evenodd"
viewBox="0 0 1219 1219"
 xmlns:xlink="http://www.w3.org/1999/xlink">
 <defs>
  <style type="text/css">
   <![CDATA[
    .fil2 {fill:#FEFEFE}
    .fil0 {fill:#1393D2}
    .fil1 {fill:#0083C4}
   ]]>
  </style>
 </defs>
 <g id="Layer_x0020_1">
  <metadata id="CorelCorpID_0Corel-Layer"/>
  <g id="_681015840">
   <rect class="fil0" width="1219" height="1219" rx="167" ry="167"/>
   <path class="fil1" d="M311 356l-9 11c3,-3 6,-7 9,-11zm411 863l-555 0c-92,0 -167,-75 -167,-167l0 -394 240 -318c71,-97 179,-165 304,-183l4 -1c2,0 4,0 6,-1 2,0 4,0 6,0 2,0 3,-1 5,-1 3,0 5,0 8,0l3 -1c3,0 6,0 9,0l2 0c3,-1 7,-1 10,-1l1 0c4,0 8,0 12,0l0 0 0 0 0 53 27 -36c1,-1 2,-2 2,-2 3,-3 5,-4 8,-4l50 -11 0 0 51 -11c9,-2 17,3 19,11 0,3 0,6 -1,8l0 0 -5 18c178,62 306,232 306,432 0,110 -39,212 -104,291l-241 318zm-422 -849l-8 11c2,-4 5,-7 8,-11zm34 -38l-10 10c3,-3 6,-7 10,-10zm-12 12l-10 11c3,-4 7,-8 10,-11zm36 -35l-10 10c3,-4 7,-7 10,-10zm-12 11l-11 11c4,-4 7,-8 11,-11zm39 -31l-11 8c3,-3 7,-6 11,-8zm-13 9l-12 10c4,-3 8,-7 12,-10zm42 -28l-13 8c4,-3 9,-5 13,-8zm-14 9l-13 8c4,-3 9,-5 13,-8zm44 -24l-14 6c5,-2 9,-4 14,-6zm-15 7l-13 7c4,-2 9,-5 13,-7zm47 -21l-15 6c5,-2 10,-4 15,-6zm-16 7l-14 6c4,-2 9,-4 14,-6zm49 -17l-15 5c5,-2 10,-4 15,-5zm-17 5l-15 5c5,-2 10,-3 15,-5zm52 -12l-17 3c6,-1 11,-3 17,-3zm-18 3l-16 4c5,-2 10,-3 16,-4zm243 25l-14 -6c4,2 9,4 14,6zm-14 -6l-14 -5c4,1 9,3 14,5zm40 19l-13 -7c5,2 9,4 13,7zm-13 -7l-13 -6c4,2 9,4 13,6zm39 22l-13 -8c5,3 9,5 13,8zm-13 -8l-13 -7c5,2 9,5 13,7zm37 25l-12 -9c4,3 8,6 12,9zm-12 -9l-12 -8c4,3 8,5 12,8zm35 28l-11 -10c4,3 8,6 11,10zm-11 -10l-12 -9c4,3 8,6 12,9zm33 30l-11 -10c4,3 7,7 11,10zm-11 -10l-11 -10c4,3 8,6 11,10zm31 32l-10 -11c3,4 6,7 10,11zm-10 -11l-10 -11c3,4 7,7 10,11zm28 34l-9 -11c3,3 6,7 9,11zm-9 -11l-9 -12c3,4 6,8 9,12zm25 36l-8 -12c3,4 6,8 8,12zm-8 -12l-8 -13c3,4 6,8 8,13zm23 38l-7 -13c2,4 5,9 7,13zm-7 -13l-8 -13c3,4 5,9 8,13zm19 40l-6 -13c2,4 4,9 6,13zm-6 -13l-6 -14c2,5 4,9 6,14zm17 42l-5 -15c2,5 3,10 5,15zm-5 -15l-6 -14c2,5 4,10 6,14zm13 44l-4 -15c2,5 3,10 4,15zm-4 -15l-4 -14c1,4 3,9 4,14zm10 45l-3 -15c1,5 2,10 3,15zm-3 -15l-3 -15c1,5 2,10 3,15zm7 46l-2 -16c1,6 2,11 2,16zm-2 -16l-2 -15c1,5 2,10 2,15zm3 48l0 -16c0,5 0,10 0,16zm0 -16l-1 -16c0,5 1,10 1,16zm-1 51l1 -17c-1,6 -1,12 -1,17zm1 -18l0 -17c0,5 0,11 0,17zm-6 53l2 -16c0,5 -1,10 -2,16zm3 -17l1 -17c0,6 -1,11 -1,17zm-11 51l4 -16c-1,5 -2,10 -4,16zm4 -17l4 -16c-1,6 -2,11 -4,16zm-15 50l0 0c2,-5 4,-10 6,-15l-6 15zm6 -17l5 -15c-2,5 -3,10 -5,15zm-19 48l7 -14c-2,5 -5,9 -7,14zm7 -16l6 -14c-2,5 -4,9 -6,14zm-22 46l7 -13c-3,4 -5,8 -7,13zm7 -15l7 -13c-2,4 -4,9 -7,13zm-26 43l8 -12c-2,4 -5,8 -8,12zm9 -14l8 -12c-2,4 -5,8 -8,12zm-10 16l0 0 -9 11c3,-4 6,-7 9,-11z"/>
   <path class="fil2" d="M544 223l0 43 0 4 -80 40 -126 65c-4,2 -8,4 -11,7 -3,3 -6,7 -8,11l0 0 0 0 0 0 0 0 0 0 0 0 0 1 0 0 0 0 0 0 0 0 0 0 0 0 0 0 0 0 0 0 0 0 0 0 0 0 0 0 0 1 0 0 0 0 0 0 0 0 0 0 0 0 -1 0 0 0 0 0 0 0 0 0 0 0 0 0 0 0 0 1 0 0 0 0 0 0 0 0 0 0 0 0c-1,2 -1,4 -2,6l0 0 0 0 0 0 0 0 0 0 0 0 0 0 0 0c0,1 0,1 0,2 -1,3 -1,5 -1,8l0 0 0 0 0 0 0 0 0 0 0 0 0 0c0,1 0,1 0,2l0 4 0 11 0 0 20 11 0 0 0 0 3 1 41 20 0 0 0 0 85 43 125 63c3,2 6,3 9,4l0 0 0 0c4,1 8,1 12,1 3,0 7,0 10,-1 3,-1 6,-2 9,-4l1 0 0 0 0 0 0 0 1 0 124 -63 85 -43 0 65 -114 57 -116 59 -117 -59 -98 -49 -16 -8 -29 -15 -35 -17 0 0 0 0 0 49c0,1 0,2 0,2l0 5 0 127 0 5 0 18 20 10c1,1 2,1 3,2l0 -1 20 10 106 54 125 62c3,2 6,3 9,4l0 0c4,1 8,2 12,2 3,0 7,-1 10,-1 3,-1 6,-3 9,-4l1 0 27 -14 0 0 98 -49 85 -43 0 64 -114 57 -116 58 0 67 0 23 0 58 0 8 0 0c252,0 457,-205 457,-457 0,-200 -128,-370 -306,-433l5 -17 0 0c1,-3 1,-5 1,-8 -2,-8 -10,-13 -19,-12l-51 12 0 0 -50 11c-3,0 -5,1 -8,3 -6,6 -6,16 -1,22l35 38 1 0 0 1 34 37c2,3 4,4 7,5 8,3 17,-1 19,-9l7 -20c151,54 260,199 260,370 0,193 -141,354 -326,386l0 -46 80 -40 124 -62c7,-4 14,-9 18,-15 5,-7 7,-15 7,-24l0 -127 0 -4 0 -1 0 -3 0 0 0 -20 0 -25 -39 19 -25 13 0 0 -32 16 -82 41 -116 58 -117 -58 -114 -57 0 -7 0 0 0 -57 85 43 125 62c3,2 6,3 9,4l0 0c4,1 8,2 12,2 3,0 7,0 10,-1 3,-1 6,-2 9,-4l1 0 27 -14 0 0 98 -49 21 -11 0 0 34 -17 30 -15 19 -9 20 -10 0 0 4 -3 4 -2 17 -8 0 -15 0 -2c0,-1 0,-2 0,-3l0 -127 0 -4c0,-1 0,-2 0,-3l0 0 0 -2 0 -1 0 0c0,-6 -2,-11 -5,-16 -3,-6 -8,-11 -14,-15 -1,-1 -2,-2 -3,-2 -5,-3 -8,-2 -12,0l-65 33 0 0 0 0 -79 39 -116 59 -117 -59 -79 -39 40 -21 0 0 39 -20 117 -59 0 -41 0 -26 0 -23 0 0 0 -66 0 0 0 0c-4,0 -8,0 -12,0l-1 0c-3,0 -7,0 -10,0l-2 1c-3,0 -6,0 -9,0l-3 0c-3,1 -5,1 -8,1 -2,0 -3,0 -5,1 -2,0 -4,0 -6,0 -2,0 -4,1 -6,1l-4 1c-222,32 -392,222 -392,453 0,199 128,369 307,432l-6 17 0 0c-1,3 -1,5 0,8 1,8 10,14 18,12l51 -11 0 0 50 -11c3,-1 6,-2 8,-4 6,-6 7,-15 1,-22l-35 -38 0 0 0 0 -35 -38c-1,-2 -4,-4 -7,-5 -8,-3 -17,2 -19,10l-6 19c-152,-54 -261,-199 -261,-369 0,-194 141,-355 326,-387z"/>
  </g>
 </g>
</svg>
