<?xml version="1.0" encoding="UTF-8"?>
<!DOCTYPE svg PUBLIC "-//W3C//DTD SVG 1.1//EN" "http://www.w3.org/Graphics/SVG/1.1/DTD/svg11.dtd">
<!-- Creator: CorelDRAW X7 -->
<svg xmlns="http://www.w3.org/2000/svg" xml:space="preserve" width="86.6986mm" height="24.0452mm" version="1.1" style="shape-rendering:geometricPrecision; text-rendering:geometricPrecision; image-rendering:optimizeQuality; fill-rule:evenodd; clip-rule:evenodd"
viewBox="0 0 8670 2405"
 xmlns:xlink="http://www.w3.org/1999/xlink">
 <defs>
  <style type="text/css">
   <![CDATA[
    .fil0 {fill:#FEFEFE}
    .fil1 {fill:#FEFEFE;fill-rule:nonzero}
   ]]>
  </style>
 </defs>
 <g id="Layer_x0020_1">
  <metadata id="CorelCorpID_0Corel-Layer"/>
  <g id="_929434128">
   <path class="fil0" d="M1002 214l0 108 0 11 -203 104 -324 164c-10,6 -19,12 -27,20 -8,8 -15,17 -20,27l0 0 0 1 0 0 0 0 0 0 0 0 0 1 0 0 -1 0 0 0 0 0 0 0 0 1 0 0 0 0 0 0 0 1 0 0 -1 0 0 0 0 0 0 0 0 1 0 0 0 0 0 0 0 0 0 0 0 1 0 0 0 0 0 0 -1 0 0 0 0 1 0 0 0 0 0 0 0 0 0 0 0 0 0 0c-2,6 -4,11 -5,16l0 0 0 0 0 0 0 0 0 0 0 0 0 0 0 1c-1,1 -1,3 -1,4 -2,7 -2,13 -2,20l-1 0 0 0 0 0 0 1 0 0 1 1 0 0c0,1 -1,2 -1,3l0 12 0 28 0 0 53 26 0 0 0 0 7 4 104 52 0 0 0 0 219 110 319 160c8,5 16,8 24,10l0 0 0 0c9,3 19,4 29,4 9,0 18,-1 27,-3 8,-3 16,-6 23,-10l1 0 0 0 2 -1 0 0 1 -1 317 -159 220 -110 0 165 -293 146 -298 150 -299 -150 -251 -126 -41 -20 -73 -37 -91 -45 0 0 0 0 0 127c0,1 0,3 0,5l0 13 0 325 0 12 0 45 52 26c3,2 5,3 7,4l1 0 50 25 273 137 319 160c8,4 16,8 24,10l0 0c9,3 19,4 29,4 9,0 18,-1 27,-3 8,-3 16,-6 23,-10l1 0 71 -35 0 -1 249 -125 220 -110 0 163 -293 147 -298 149 0 171 0 59 0 147 0 22 0 0c647,0 1171,-524 1171,-1171 0,-511 -328,-945 -785,-1105l15 -45 0 0c2,-6 2,-13 1,-20 -5,-21 -26,-35 -47,-30l-131 29 1 0 -129 28c-7,1 -14,4 -20,9 -16,15 -17,39 -3,55l90 99 0 0 1 0 87 96c5,7 11,12 19,14 21,7 43,-5 50,-25l15 -49c389,138 667,508 667,944 0,496 -360,908 -833,988l0 -118 202 -101 319 -160c18,-8 34,-21 46,-38 11,-17 18,-38 18,-60l0 -325 0 -12 0 0 0 -8 0 0 0 -53 0 -64 -101 50 -62 32 0 0 -83 41 -210 105 -298 150 -299 -150 -292 -146 0 -18 0 0 0 -145 219 110 319 160c8,4 16,8 24,10l0 0c9,3 19,4 29,4 9,0 18,-1 27,-4 8,-2 16,-5 23,-9l1 0 71 -36 0 0 249 -125 55 -28 0 0 87 -43 78 -39 47 -24 51 -26 1 0 11 -5 10 -5 43 -22 0 -37 0 -7c0,-2 0,-4 0,-6l0 -325 0 -12c0,-2 0,-4 0,-6l0 -1 0 -5 0 -3 0 0c-2,-14 -6,-28 -13,-40 -8,-16 -20,-29 -36,-39 -3,-2 -6,-4 -9,-6 -11,-5 -19,-4 -29,2l-166 83 0 0 0 0 -203 101 -298 150 -299 -150 -202 -101 102 -52 0 0 101 -52 298 -151 0 -104 0 -67 0 -60 0 0 0 -169 0 0 0 0c-10,0 -20,1 -30,1l-1 0c-9,0 -19,0 -28,1l-4 0c-8,0 -16,1 -24,2l-7 0c-7,1 -13,1 -20,2 -4,0 -8,1 -13,1 -4,1 -9,1 -14,2 -6,1 -11,1 -17,2l-11 2c-566,81 -1002,569 -1002,1158 0,511 328,946 784,1106l-14 45 0 0c-2,6 -2,13 -1,20 5,21 26,34 47,30l130 -29 0 0 128 -28c8,-1 15,-4 21,-10 16,-14 17,-39 2,-55l-90 -99 0 0 0 0 -87 -96c-5,-6 -12,-11 -20,-14 -20,-6 -42,5 -49,26l-15 49c-389,-138 -667,-509 -667,-945 0,-496 360,-908 833,-988z"/>
   <path class="fil1" d="M3216 1545l-171 0 0 -674 41 0 57 66c27,-25 59,-45 94,-59 35,-13 71,-20 109,-20 41,0 80,8 117,24 36,15 68,37 95,64 28,28 49,60 65,97 16,36 23,75 23,117l0 385 -171 0 0 -385c0,-18 -4,-34 -10,-50 -7,-16 -16,-30 -28,-41 -12,-12 -25,-21 -41,-28 -15,-7 -32,-10 -50,-10 -18,0 -35,3 -50,10 -17,7 -30,16 -42,28 -12,11 -21,25 -28,41 -6,16 -10,32 -10,50l0 385zm922 0l-392 0 0 -171 392 0c12,0 22,-4 30,-13 9,-8 13,-18 13,-30 0,-12 -4,-20 -13,-24 -8,-4 -18,-6 -30,-6l-178 0c-30,0 -58,-5 -84,-17 -26,-11 -49,-26 -68,-46 -19,-19 -34,-42 -46,-68 -11,-26 -16,-54 -16,-84 0,-29 5,-57 16,-83 12,-26 27,-49 46,-68 19,-20 42,-35 68,-46 26,-11 54,-17 84,-17l347 0 0 172 -347 0c-12,0 -22,4 -31,12 -8,9 -12,19 -12,30 0,12 4,23 12,31 9,9 19,13 31,13l178 0c30,0 57,5 83,15 26,10 49,24 68,41 19,18 35,39 46,64 11,24 17,52 17,81 0,30 -6,57 -17,83 -11,26 -27,49 -46,68 -19,20 -42,35 -68,46 -26,11 -53,17 -83,17zm800 -79c-14,13 -28,25 -44,36 -16,11 -32,20 -49,29 -18,8 -35,14 -54,19 -18,5 -36,7 -55,7 -42,0 -81,-7 -117,-22 -37,-14 -69,-35 -96,-62 -28,-27 -49,-60 -65,-99 -16,-39 -23,-82 -23,-130l0 -373 171 0 0 373c0,22 3,42 10,60 7,18 16,33 28,45 12,12 25,21 41,28 16,6 33,9 51,9 17,0 34,-4 50,-12 15,-8 29,-19 41,-32 12,-14 21,-29 28,-46 6,-17 10,-34 10,-52l0 -373 171 0 0 674 -41 0 -57 -79zm402 335l-173 0 0 -930 42 0 68 81c16,-14 33,-28 51,-41 19,-13 38,-24 58,-34 20,-9 40,-17 61,-22 22,-6 44,-8 65,-8 48,0 92,8 134,25 42,17 78,41 109,72 32,31 56,69 74,112 18,44 27,93 27,146 0,55 -9,105 -27,149 -18,45 -42,82 -74,113 -31,31 -67,54 -109,71 -42,16 -86,24 -134,24 -15,0 -30,-1 -45,-5 -15,-3 -29,-8 -44,-13 -14,-6 -28,-12 -42,-19 -14,-8 -28,-15 -41,-23l0 302zm344 -599c0,-28 -4,-54 -13,-77 -10,-22 -22,-42 -37,-57 -16,-16 -34,-28 -55,-36 -21,-9 -43,-13 -67,-13 -23,0 -45,4 -66,13 -21,8 -39,20 -54,36 -16,15 -28,35 -37,57 -9,23 -14,49 -14,77 0,27 5,52 14,75 9,22 21,42 37,58 15,16 33,28 54,37 21,9 43,13 66,13 24,0 46,-4 67,-13 21,-9 39,-21 55,-37 15,-16 27,-36 37,-58 9,-23 13,-48 13,-75zm918 343l-41 0 -67 -93c-16,15 -34,29 -52,41 -18,13 -37,24 -58,34 -20,9 -40,17 -61,22 -22,6 -43,8 -65,8 -47,0 -92,-9 -133,-26 -42,-18 -79,-43 -110,-75 -31,-31 -56,-69 -74,-112 -18,-44 -27,-91 -27,-142 0,-51 9,-98 27,-142 18,-43 43,-81 74,-113 31,-32 68,-57 110,-75 41,-18 86,-27 133,-27 15,0 31,2 47,4 16,3 32,7 47,13 15,5 30,13 43,22 14,9 25,20 34,34l0 -315 173 0 0 942zm-173 -343c0,-23 -4,-46 -13,-68 -9,-22 -22,-42 -37,-59 -16,-17 -34,-30 -55,-40 -20,-11 -42,-16 -66,-16 -23,0 -45,4 -66,13 -21,8 -39,20 -54,36 -16,15 -28,35 -36,57 -9,23 -14,49 -14,77 0,25 5,48 14,70 8,23 20,42 36,59 15,17 33,30 54,39 21,10 43,15 66,15 24,0 46,-5 66,-15 21,-11 39,-24 55,-41 15,-17 28,-37 37,-59 9,-22 13,-44 13,-68zm956 343l-41 0 -67 -93c-16,15 -34,29 -52,41 -18,13 -37,24 -57,34 -21,9 -41,17 -62,22 -22,6 -43,8 -65,8 -47,0 -92,-8 -133,-24 -42,-16 -79,-39 -110,-69 -31,-30 -56,-68 -74,-112 -18,-44 -27,-94 -27,-150 0,-52 9,-101 27,-144 18,-44 43,-82 74,-113 31,-32 68,-56 110,-73 41,-18 86,-27 133,-27 22,0 43,3 65,9 21,5 42,13 62,22 20,10 39,21 58,34 18,13 35,27 51,42l67 -80 41 0 0 673zm-173 -343c0,-23 -4,-46 -13,-68 -9,-22 -22,-42 -37,-59 -16,-17 -34,-30 -55,-40 -20,-11 -42,-16 -66,-16 -23,0 -45,4 -66,12 -21,8 -39,20 -54,35 -16,16 -28,35 -36,58 -9,23 -14,49 -14,78 0,29 5,56 14,78 8,23 20,42 36,58 15,15 33,27 54,35 21,8 43,12 66,12 24,0 46,-5 66,-15 21,-11 39,-24 55,-41 15,-17 28,-37 37,-59 9,-22 13,-44 13,-68zm642 343c-42,0 -81,-8 -117,-24 -37,-16 -69,-37 -96,-65 -28,-27 -49,-59 -65,-95 -16,-37 -24,-76 -24,-117l0 -200 -83 0 0 -172 83 0 0 -269 171 0 0 269 261 0 0 172 -261 0 0 200c0,18 4,34 10,50 7,16 16,30 28,41 12,12 26,21 42,28 16,7 33,11 51,11l130 0 0 171 -130 0zm494 -165c7,2 13,4 20,4 7,1 13,1 20,1 17,0 33,-2 49,-7 15,-5 30,-11 43,-20 14,-8 26,-19 37,-31 10,-13 19,-26 26,-41l126 126c-16,23 -35,43 -55,61 -21,18 -44,33 -68,46 -24,12 -49,22 -76,29 -26,6 -54,9 -82,9 -47,0 -92,-8 -133,-26 -42,-18 -79,-42 -110,-74 -31,-31 -56,-69 -74,-112 -18,-43 -27,-91 -27,-143 0,-53 9,-102 27,-146 18,-44 43,-81 74,-113 31,-30 68,-55 110,-72 41,-17 86,-26 133,-26 28,0 56,4 82,10 27,7 53,17 77,29 24,13 46,28 67,47 22,18 40,38 56,61l-322 388zm88 -354c-8,-3 -16,-5 -24,-6 -7,-1 -16,-1 -24,-1 -23,0 -45,4 -66,13 -21,9 -39,21 -54,37 -16,16 -28,35 -36,57 -9,23 -14,48 -14,76 0,6 1,13 1,21 1,8 2,17 3,25 2,8 4,16 6,23 2,8 5,14 8,20l200 -265z"/>
  </g>
 </g>
</svg>
