<?xml version="1.0" encoding="UTF-8"?>
<!DOCTYPE svg PUBLIC "-//W3C//DTD SVG 1.1//EN" "http://www.w3.org/Graphics/SVG/1.1/DTD/svg11.dtd">
<!-- Creator: CorelDRAW X7 -->
<svg xmlns="http://www.w3.org/2000/svg" xml:space="preserve" width="43.3492mm" height="12.0226mm" version="1.1" style="shape-rendering:geometricPrecision; text-rendering:geometricPrecision; image-rendering:optimizeQuality; fill-rule:evenodd; clip-rule:evenodd"
viewBox="0 0 4335 1202"
 xmlns:xlink="http://www.w3.org/1999/xlink">
 <defs>
  <style type="text/css">
   <![CDATA[
    .fil0 {fill:#1393D2}
    .fil1 {fill:#1393D2;fill-rule:nonzero}
   ]]>
  </style>
 </defs>
 <g id="Layer_x0020_1">
  <metadata id="CorelCorpID_0Corel-Layer"/>
  <g id="_681018080">
   <path class="fil0" d="M500 107l0 54 0 5 -102 52 -162 82c-5,3 -10,6 -14,10 -4,4 -7,9 -10,14l0 0 0 0 0 0 0 0 0 0 0 0 0 1 0 0 0 0 0 0 0 0 0 0 0 0 0 0 0 0 0 0 0 1 0 0 -1 0 0 0 0 0 0 0 0 0 0 0 0 0 0 0 0 0 0 0 0 1 0 0 0 0 0 0 0 0 0 0 0 0 0 0 0 0 0 0 0 0 0 0 0 0 0 1c-1,2 -2,5 -3,7l0 0 0 0 0 0 0 0 0 0 0 0 0 0 0 1c0,0 0,1 0,2 -1,3 -1,6 -1,10l-1 0 0 0 0 0 0 0 0 0 1 1 0 0c0,0 -1,1 -1,1l0 6 0 14 0 0 27 14 0 0 0 0 3 1 52 27 0 0 0 0 110 55 160 80c4,2 7,3 11,5l0 0 1 0c4,1 9,2 14,2 5,0 9,-1 14,-2 4,-1 8,-3 11,-5l1 0 0 0 1 -1 0 0 0 0 159 -79 110 -56 0 83 -147 73 -149 75 -149 -75 -126 -63 -21 -10 -36 -19 -46 -22 0 0 0 0 0 63c0,1 0,2 0,3l0 6 0 163 0 6 0 23 26 13c2,0 3,1 4,2l0 0 25 12 137 69 160 80c3,2 7,4 11,5l0 0c5,1 10,2 15,2 5,0 9,-1 14,-2 4,-1 8,-3 11,-5l1 0 35 -17 0 -1 125 -62 110 -55 0 81 -147 74 -149 75 0 85 0 30 0 73 0 11 0 0c324,0 586,-262 586,-586 0,-256 -164,-473 -393,-553l8 -23 0 0c1,-3 1,-6 0,-10 -2,-10 -13,-17 -23,-15l-66 15 0 0 -64 14c-3,0 -7,2 -10,5 -8,7 -8,19 -1,27l45 50 0 0 0 0 44 48c2,3 5,5 9,7 11,3 22,-3 25,-13l8 -25c194,69 334,255 334,473 0,248 -181,454 -418,495l0 -60 102 -50 159 -80c10,-4 18,-11 23,-19 6,-9 10,-19 10,-30l0 -163 0 -6 0 0 0 -4 0 0 0 -27 0 -32 -51 26 -31 15 0 0 -42 21 -105 53 -149 75 -149 -75 -147 -73 0 -10 0 0 0 -72 110 55 160 80c3,2 7,4 11,5l0 0c5,1 10,2 15,2 5,0 9,0 14,-2 4,-1 8,-2 11,-4l1 -1 35 -17 0 0 125 -63 27 -14 0 0 44 -21 39 -20 23 -12 26 -13 0 0 6 -3 5 -2 22 -11 0 -19 0 -3c0,-1 0,-2 0,-3l0 -163 0 -6c0,-1 0,-2 0,-3l0 0 0 -3 -1 -1 0 0c0,-7 -3,-14 -6,-20 -4,-8 -10,-15 -18,-20 -1,-1 -3,-2 -5,-3 -5,-2 -9,-2 -14,1l-83 42 0 0 0 0 -102 51 -149 74 -149 -74 -102 -51 51 -26 0 0 51 -26 149 -76 0 -52 0 -33 0 -30 0 0 0 -85 0 0 0 0c-5,0 -10,0 -15,0l0 0c-5,1 -10,1 -14,1l-2 0c-4,0 -8,0 -12,1l-4 0c-3,0 -7,1 -10,1 -2,0 -4,0 -6,1 -3,0 -5,0 -8,0 -2,1 -5,1 -8,1l-5 1c-284,41 -502,285 -502,580 0,256 164,473 393,553l-8 23 0 0c-1,3 -1,6 0,10 2,10 13,17 23,15l66 -14 0 -1 64 -14c3,0 7,-2 10,-4 8,-8 9,-20 1,-28l-45 -49 0 0 0 0 -44 -49c-2,-3 -5,-5 -9,-6 -11,-4 -22,2 -25,12l-8 25c-194,-69 -334,-255 -334,-473 0,-248 181,-454 418,-494z"/>
   <path class="fil1" d="M1608 773l-86 0 0 -338 20 0 29 33c14,-12 29,-22 47,-29 17,-7 36,-10 55,-10 20,0 40,4 58,12 18,8 34,18 48,32 13,14 24,30 32,48 8,19 12,38 12,59l0 193 -86 0 0 -193c0,-9 -2,-17 -5,-25 -3,-8 -8,-15 -14,-21 -6,-6 -13,-10 -20,-14 -8,-3 -16,-5 -25,-5 -9,0 -18,2 -26,5 -8,4 -15,8 -21,14 -5,6 -10,13 -13,21 -4,8 -5,16 -5,25l0 193zm461 0l-196 0 0 -86 196 0c6,0 11,-2 15,-6 4,-5 6,-10 6,-15 0,-7 -2,-11 -6,-12 -4,-2 -9,-3 -15,-3l-89 0c-15,0 -29,-3 -42,-9 -13,-5 -25,-13 -34,-23 -10,-10 -17,-21 -23,-34 -6,-13 -8,-27 -8,-42 0,-15 2,-29 8,-42 6,-13 13,-24 23,-34 9,-9 21,-17 34,-23 13,-5 27,-8 42,-8l174 0 0 86 -174 0c-6,0 -11,2 -15,6 -5,4 -7,9 -7,15 0,6 2,11 7,16 4,4 9,6 15,6l89 0c15,0 29,3 42,8 13,4 24,11 34,20 9,9 17,20 22,32 6,12 9,26 9,41 0,14 -3,28 -9,41 -5,13 -13,24 -22,34 -10,10 -21,18 -34,23 -13,6 -27,9 -42,9zm400 -40c-7,6 -14,12 -22,18 -8,6 -16,10 -25,14 -8,5 -17,8 -26,10 -9,3 -19,4 -28,4 -21,0 -40,-4 -59,-11 -18,-8 -34,-18 -48,-31 -13,-14 -24,-31 -32,-50 -8,-19 -12,-41 -12,-65l0 -187 86 0 0 187c0,11 2,21 5,30 4,9 8,17 14,23 6,6 13,10 21,14 8,3 16,4 25,4 9,0 17,-2 25,-6 8,-4 15,-9 21,-16 6,-7 10,-14 14,-23 3,-8 5,-17 5,-26l0 -187 85 0 0 338 -20 0 -29 -40zm201 168l-86 0 0 -466 21 0 34 41c8,-7 16,-14 26,-21 9,-6 18,-12 28,-17 10,-4 21,-8 31,-11 11,-2 22,-4 33,-4 23,0 46,4 67,13 20,8 39,20 54,36 16,16 28,34 37,56 9,22 14,46 14,73 0,28 -5,53 -14,75 -9,22 -21,41 -37,56 -15,15 -34,27 -54,35 -21,9 -44,13 -67,13 -8,0 -15,-1 -23,-3 -7,-1 -15,-4 -22,-7 -7,-2 -14,-6 -21,-9 -7,-4 -14,-7 -21,-11l0 151zm173 -300c0,-14 -3,-27 -7,-38 -5,-12 -11,-21 -19,-29 -7,-8 -16,-14 -27,-18 -10,-5 -22,-7 -33,-7 -12,0 -23,2 -34,7 -10,4 -19,10 -27,18 -8,8 -14,17 -18,29 -5,11 -7,24 -7,38 0,14 2,26 7,37 4,12 10,21 18,29 8,8 17,15 27,19 11,4 22,7 34,7 11,0 23,-3 33,-7 11,-4 20,-11 27,-19 8,-8 14,-17 19,-29 4,-11 7,-23 7,-37zm459 172l-21 0 -33 -47c-8,8 -17,15 -26,21 -9,6 -19,12 -29,17 -10,4 -20,8 -31,11 -10,2 -21,4 -32,4 -24,0 -46,-5 -67,-14 -21,-8 -39,-21 -55,-37 -15,-16 -28,-34 -37,-56 -9,-22 -13,-45 -13,-71 0,-25 4,-49 13,-71 9,-22 22,-41 37,-56 16,-16 34,-29 55,-38 21,-9 43,-13 67,-13 7,0 15,0 23,1 8,2 16,4 24,7 8,2 15,6 22,11 6,4 12,10 16,17l0 -158 87 0 0 472zm-87 -172c0,-12 -2,-23 -6,-34 -5,-11 -11,-21 -19,-29 -7,-9 -17,-16 -27,-21 -10,-5 -21,-8 -33,-8 -12,0 -23,2 -33,7 -11,4 -20,10 -27,18 -8,8 -14,17 -18,29 -5,11 -7,24 -7,38 0,12 2,24 7,35 4,11 10,21 18,30 7,8 16,15 27,19 10,5 21,8 33,8 12,0 23,-3 33,-8 10,-5 20,-12 27,-21 8,-8 14,-18 19,-29 4,-11 6,-22 6,-34zm479 172l-21 0 -33 -47c-8,8 -17,15 -26,21 -9,6 -19,12 -29,17 -10,4 -20,8 -31,11 -11,2 -21,4 -32,4 -24,0 -46,-4 -67,-12 -21,-8 -39,-20 -55,-35 -16,-15 -28,-34 -37,-56 -9,-22 -13,-47 -13,-75 0,-26 4,-50 13,-72 9,-22 21,-41 37,-57 16,-15 34,-28 55,-36 21,-9 43,-13 67,-13 11,0 21,1 32,4 11,2 21,6 31,11 10,5 20,10 29,17 9,6 18,14 26,21l33 -40 21 0 0 337zm-87 -172c0,-12 -2,-23 -6,-34 -5,-11 -11,-21 -19,-29 -8,-9 -17,-16 -27,-21 -10,-5 -21,-8 -33,-8 -12,0 -23,2 -33,6 -11,4 -20,10 -28,18 -7,8 -13,17 -18,29 -4,11 -6,24 -6,39 0,15 2,28 6,39 5,12 11,21 18,29 8,8 17,14 28,18 10,4 21,6 33,6 12,0 23,-3 33,-8 10,-5 19,-12 27,-21 8,-8 14,-18 19,-29 4,-11 6,-22 6,-34zm321 172c-20,0 -40,-4 -58,-12 -18,-8 -34,-19 -48,-33 -14,-13 -25,-29 -33,-48 -8,-18 -11,-37 -11,-58l0 -100 -42 0 0 -86 42 0 0 -135 85 0 0 135 130 0 0 86 -130 0 0 100c0,9 2,17 5,25 4,8 8,15 14,21 6,6 13,10 21,14 8,3 16,5 25,5l65 0 0 86 -65 0zm248 -83c3,1 6,2 10,2 3,0 6,1 10,1 8,0 16,-2 24,-4 8,-2 15,-6 22,-10 7,-4 13,-9 18,-16 6,-6 10,-13 13,-20l63 63c-8,11 -17,22 -27,31 -11,9 -22,16 -34,23 -12,6 -25,11 -38,14 -13,3 -27,5 -41,5 -24,0 -46,-5 -67,-13 -21,-9 -39,-22 -55,-37 -15,-16 -28,-35 -37,-56 -9,-22 -13,-46 -13,-72 0,-27 4,-51 13,-73 9,-22 22,-41 37,-56 16,-16 34,-28 55,-37 21,-8 43,-12 67,-12 14,0 28,1 41,5 13,3 26,8 38,14 12,6 24,14 34,23 11,9 20,20 28,31l-161 194zm44 -177c-4,-2 -8,-2 -12,-3 -4,0 -8,-1 -12,-1 -12,0 -23,3 -33,7 -11,4 -20,10 -27,18 -8,8 -14,18 -18,29 -5,11 -7,24 -7,38 0,3 0,7 0,11 1,4 1,8 2,12 1,4 1,8 3,12 1,3 2,7 4,10l100 -133z"/>
  </g>
 </g>
</svg>
