<?xml version="1.0" encoding="UTF-8"?>
<!DOCTYPE svg PUBLIC "-//W3C//DTD SVG 1.1//EN" "http://www.w3.org/Graphics/SVG/1.1/DTD/svg11.dtd">
<!-- Creator: CorelDRAW X7 -->
<svg xmlns="http://www.w3.org/2000/svg" xml:space="preserve" width="21.6746mm" height="6.0112mm" version="1.1" style="shape-rendering:geometricPrecision; text-rendering:geometricPrecision; image-rendering:optimizeQuality; fill-rule:evenodd; clip-rule:evenodd"
viewBox="0 0 2167 601"
 xmlns:xlink="http://www.w3.org/1999/xlink">
 <defs>
  <style type="text/css">
   <![CDATA[
    .fil0 {fill:#1D1819}
    .fil1 {fill:#1D1819;fill-rule:nonzero}
   ]]>
  </style>
 </defs>
 <g id="Layer_x0020_1">
  <metadata id="CorelCorpID_0Corel-Layer"/>
  <g id="_681015392">
   <path class="fil0" d="M252 54l0 27 0 3 -51 25 -81 42c-2,1 -4,3 -6,5 -2,1 -4,4 -5,6l0 0 0 0 0 0 0 1 0 0 0 0 0 0 0 0 0 0 0 0 0 0 0 0 0 0 0 0 -1 0 0 0 0 0 0 0 0 0 0 0 0 0 0 0 0 0 0 0 0 0 0 0 0 1 0 0 0 0 0 0 0 0 0 0 0 0 0 0 0 0 0 0 0 0 0 0 0 0 0 0 0 0 0 0c-1,1 -1,3 -1,4l0 0 0 0 0 0 0 0 0 0 0 0 0 0 0 0c0,0 -1,1 -1,1 0,2 0,4 0,5l0 0 0 0 0 0 0 0 0 0 0 1 0 0c0,0 0,0 0,0l0 4 0 7 0 0 13 6 0 0 0 0 2 1 26 13 0 0 0 0 54 27 80 40c2,1 4,2 6,3l0 0 0 0c2,1 5,1 7,1 2,0 5,0 7,-1 2,-1 4,-1 6,-2l0 0 0 -1 0 0 0 0 1 0 79 -40 55 -27 0 41 -73 37 -75 37 -74 -37 -63 -32 -10 -5 -19 -9 -22 -11 0 0 0 0 0 31c0,1 0,1 0,2l0 3 0 81 0 3 0 11 13 7c0,0 1,0 2,1l0 0 12 6 68 34 80 40c2,1 4,2 6,3l0 0c2,0 5,1 7,1 2,0 5,-1 7,-1 2,-1 4,-2 6,-3l0 0 18 -9 0 0 62 -31 55 -27 0 40 -73 37 -75 37 0 43 0 15 0 36 0 6 0 0c162,0 292,-131 292,-292 0,-128 -81,-236 -195,-276l3 -12 0 0c1,-1 1,-3 0,-5 -1,-5 -6,-8 -11,-7l-33 7 0 0 -32 7c-2,0 -3,1 -5,3 -4,3 -4,9 -1,13l23 25 0 0 0 0 22 24c1,2 3,3 5,3 5,2 10,-1 12,-6l4 -12c97,34 166,127 166,236 0,123 -90,226 -208,246l0 -29 51 -26 79 -40c5,-2 9,-5 12,-9 3,-4 4,-9 4,-15l0 -81 0 -3 0 0 0 -2 0 0 0 -13 0 -16 -25 12 -15 8 0 0 -21 11 -52 26 -75 37 -74 -37 -73 -37 0 -4 0 0 0 -36 54 27 80 40c2,1 4,2 6,2l0 0c2,1 5,1 7,1 2,0 5,0 7,-1 2,0 4,-1 6,-2l0 0 18 -9 0 0 62 -31 14 -7 0 0 21 -11 20 -9 11 -6 13 -7 0 0 3 -1 3 -2 10 -5 0 -9 0 -2c0,0 0,-1 0,-1l0 -81 0 -4c0,0 0,-1 0,-1l0 0 0 -1 0 -1 0 0c0,-4 -1,-7 -3,-10 -2,-4 -5,-8 -9,-10 -1,0 -1,-1 -2,-1 -3,-2 -5,-1 -7,0l-42 21 0 0 0 0 -50 25 -75 37 -74 -37 -51 -25 26 -13 0 0 25 -13 74 -38 0 -26 0 -17 0 -15 0 0 0 -42 0 0 0 0c-2,0 -5,0 -7,0l-1 0c-2,1 -4,1 -6,1l-1 0c-2,0 -4,0 -6,0l-2 0c-2,0 -4,1 -5,1 -1,0 -2,0 -3,0 -2,0 -3,0 -4,0 -1,1 -3,1 -4,1l-3 0c-141,21 -250,142 -250,290 0,127 82,236 196,275l-4 12 0 0c0,1 0,3 0,5 1,5 6,8 11,7l33 -7 0 0 32 -7c2,0 4,-1 5,-2 4,-4 4,-10 1,-14l-23 -25 0 0 0 0 -22 -24c-1,-1 -2,-3 -4,-3 -6,-2 -11,1 -13,6l-4 12c-97,-34 -166,-127 -166,-235 0,-124 90,-227 208,-247z"/>
   <path class="fil1" d="M805 386l-43 0 0 -168 10 0 14 16c7,-6 15,-11 24,-14 8,-4 18,-5 27,-5 10,0 20,2 29,6 9,3 17,9 24,16 7,7 12,15 16,24 4,9 6,19 6,29l0 96 -43 0 0 -96c0,-4 -1,-9 -2,-12 -2,-4 -4,-8 -7,-11 -3,-3 -7,-5 -11,-7 -3,-1 -8,-2 -12,-2 -4,0 -9,1 -13,2 -4,2 -7,4 -10,7 -3,3 -5,7 -7,11 -2,3 -2,8 -2,12l0 96zm230 0l-98 0 0 -43 98 0c3,0 5,-1 7,-3 2,-2 3,-4 3,-7 0,-3 -1,-5 -3,-6 -2,-1 -4,-2 -7,-2l-45 0c-7,0 -14,-1 -21,-4 -6,-3 -12,-7 -17,-11 -5,-5 -8,-11 -11,-17 -3,-7 -4,-14 -4,-21 0,-8 1,-15 4,-21 3,-7 6,-12 11,-17 5,-5 11,-9 17,-12 7,-2 14,-4 21,-4l87 0 0 43 -87 0c-3,0 -5,1 -7,3 -3,2 -4,5 -4,8 0,3 1,5 4,7 2,3 4,4 7,4l45 0c7,0 14,1 20,3 7,3 13,6 17,11 5,4 9,9 12,15 3,7 4,13 4,21 0,7 -1,14 -4,20 -3,7 -7,13 -12,17 -4,5 -10,9 -17,12 -6,3 -13,4 -20,4zm199 -20c-3,4 -7,7 -11,9 -4,3 -8,5 -12,7 -4,3 -9,4 -13,5 -5,2 -10,2 -14,2 -11,0 -20,-2 -29,-5 -10,-4 -18,-9 -24,-16 -7,-7 -13,-15 -17,-25 -3,-9 -5,-20 -5,-32l0 -93 42 0 0 93c0,6 1,11 3,15 2,4 4,8 7,11 3,3 6,6 10,7 4,2 8,2 13,2 4,0 8,-1 12,-3 4,-2 8,-4 11,-8 2,-3 5,-7 6,-11 2,-4 3,-9 3,-13l0 -93 43 0 0 168 -11 0 -14 -20zm101 84l-44 0 0 -232 11 0 17 20c4,-3 8,-7 13,-10 4,-3 9,-6 14,-9 5,-2 10,-4 15,-5 6,-1 11,-2 17,-2 11,0 22,2 33,6 10,4 19,10 27,18 8,8 14,17 19,28 4,11 6,23 6,36 0,14 -2,27 -6,38 -5,11 -11,20 -19,28 -8,8 -17,13 -27,18 -11,4 -22,6 -33,6 -4,0 -8,-1 -12,-2 -3,0 -7,-2 -11,-3 -3,-1 -7,-3 -10,-5 -4,-2 -7,-3 -10,-5l0 75zm85 -150c0,-7 -1,-13 -3,-19 -2,-5 -5,-10 -9,-14 -4,-4 -9,-7 -14,-9 -5,-2 -11,-3 -16,-3 -6,0 -12,1 -17,3 -5,2 -10,5 -14,9 -3,4 -7,9 -9,14 -2,6 -3,12 -3,19 0,7 1,14 3,19 2,6 6,11 9,15 4,4 9,7 14,9 5,2 11,3 17,3 5,0 11,-1 16,-3 5,-2 10,-5 14,-9 4,-4 7,-9 9,-15 2,-5 3,-12 3,-19zm230 86l-11 0 -16 -23c-5,4 -9,7 -13,10 -5,3 -10,6 -15,9 -5,2 -10,4 -15,5 -6,1 -11,2 -16,2 -12,0 -23,-2 -34,-7 -10,-4 -19,-10 -27,-18 -8,-8 -14,-17 -18,-28 -5,-11 -7,-23 -7,-36 0,-12 2,-24 7,-35 4,-11 10,-20 18,-28 8,-8 17,-14 27,-19 11,-4 22,-6 34,-6 3,0 7,0 11,0 4,1 8,2 12,4 4,1 8,3 11,5 3,2 6,5 8,9l0 -79 44 0 0 235zm-44 -86c0,-5 -1,-11 -3,-17 -2,-5 -5,-10 -9,-14 -4,-4 -9,-8 -14,-10 -5,-3 -10,-4 -16,-4 -6,0 -12,1 -17,3 -5,2 -10,5 -13,9 -4,4 -7,9 -9,14 -3,6 -4,12 -4,19 0,7 1,13 4,18 2,6 5,11 9,15 3,4 8,7 13,10 5,2 11,3 17,3 6,0 11,-1 16,-4 5,-2 10,-6 14,-10 4,-4 7,-9 9,-14 2,-6 3,-12 3,-18zm239 86l-10 0 -17 -23c-4,4 -8,7 -13,10 -5,3 -9,6 -14,9 -5,2 -11,4 -16,5 -5,1 -10,2 -16,2 -12,0 -23,-2 -33,-6 -11,-4 -20,-10 -28,-17 -7,-8 -14,-17 -18,-28 -5,-11 -7,-23 -7,-38 0,-13 2,-25 7,-36 4,-10 11,-20 18,-28 8,-8 17,-14 28,-18 10,-4 21,-6 33,-6 6,0 11,0 16,2 6,1 11,3 16,5 5,3 10,5 14,9 5,3 9,6 13,10l17 -20 10 0 0 168zm-43 -86c0,-5 -1,-11 -4,-17 -2,-5 -5,-10 -9,-14 -4,-4 -8,-8 -13,-10 -6,-3 -11,-4 -17,-4 -6,0 -11,1 -16,3 -6,2 -10,5 -14,9 -4,3 -7,8 -9,14 -2,6 -3,12 -3,19 0,8 1,14 3,20 2,6 5,11 9,14 4,4 8,7 14,9 5,2 10,3 16,3 6,0 11,-1 17,-4 5,-2 9,-6 13,-10 4,-4 7,-9 9,-14 3,-6 4,-12 4,-18zm160 86c-11,0 -20,-2 -29,-6 -9,-4 -17,-9 -24,-16 -7,-7 -13,-15 -17,-24 -3,-9 -5,-19 -5,-29l0 -50 -21 0 0 -43 21 0 0 -67 42 0 0 67 65 0 0 43 -65 0 0 50c0,4 1,9 3,13 2,3 4,7 7,10 3,3 6,5 10,7 4,1 8,2 13,2l32 0 0 43 -32 0zm123 -41c2,0 3,1 5,1 2,0 4,0 5,0 4,0 8,0 12,-2 4,-1 8,-2 11,-5 4,-2 7,-4 9,-7 3,-3 5,-7 7,-11l31 32c-4,6 -8,11 -14,15 -5,5 -10,8 -16,12 -6,3 -13,5 -19,7 -7,1 -14,2 -21,2 -12,0 -23,-2 -33,-6 -11,-5 -20,-11 -27,-19 -8,-8 -14,-17 -19,-28 -4,-11 -7,-22 -7,-36 0,-13 3,-25 7,-36 5,-11 11,-20 19,-28 7,-8 16,-14 27,-18 10,-4 21,-6 33,-6 7,0 14,0 21,2 6,2 13,4 19,7 6,3 11,7 17,12 5,4 10,9 14,15l-81 97zm22 -88c-2,-1 -4,-2 -6,-2 -2,0 -4,0 -6,0 -6,0 -11,1 -16,3 -5,2 -10,5 -14,9 -4,4 -7,9 -9,15 -2,5 -3,11 -3,18 0,2 0,4 0,6 0,2 0,4 1,6 0,2 1,4 1,6 1,2 1,3 2,5l50 -66z"/>
  </g>
 </g>
</svg>
