<?xml version="1.0" encoding="UTF-8"?>
<!DOCTYPE svg PUBLIC "-//W3C//DTD SVG 1.1//EN" "http://www.w3.org/Graphics/SVG/1.1/DTD/svg11.dtd">
<!-- Creator: CorelDRAW X7 -->
<svg xmlns="http://www.w3.org/2000/svg" xml:space="preserve" width="43.3492mm" height="43.3492mm" version="1.1" style="shape-rendering:geometricPrecision; text-rendering:geometricPrecision; image-rendering:optimizeQuality; fill-rule:evenodd; clip-rule:evenodd"
viewBox="0 0 4335 4335"
 xmlns:xlink="http://www.w3.org/1999/xlink">
 <defs>
  <style type="text/css">
   <![CDATA[
    .fil2 {fill:#FEFEFE}
    .fil0 {fill:#1393D2}
    .fil1 {fill:#0083C4}
   ]]>
  </style>
 </defs>
 <g id="Layer_x0020_1">
  <metadata id="CorelCorpID_0Corel-Layer"/>
  <g id="_962992112">
   <rect class="fil0" width="4335" height="4335" rx="595" ry="595"/>
   <path class="fil1" d="M1105 1268l-32 39c11,-14 21,-27 32,-39zm1464 3067l-1974 0c-327,0 -595,-268 -595,-595l0 -1399 853 -1132c252,-345 637,-587 1080,-651l15 -2c8,-1 16,-2 23,-3 7,-1 14,-2 21,-3 6,0 11,-1 17,-2 9,0 19,-1 28,-2l10 -1c11,-1 22,-1 34,-2l5 0c13,-1 26,-1 38,-2l2 0c14,0 28,0 41,0l1 0 0 0 0 190 98 -131c2,-3 4,-5 7,-8 8,-7 18,-12 28,-13l178 -39 0 0 182 -40c29,-6 58,12 65,41 2,10 1,20 -2,28l0 0 -20 63c635,222 1090,825 1090,1535 0,394 -139,754 -371,1035l-854 1133zm-1503 -3020l-29 39c10,-13 19,-26 29,-39zm120 -135l-35 36c12,-12 23,-24 35,-36zm-41 43l-34 38c11,-13 22,-26 34,-38zm129 -123l-38 33c13,-12 25,-23 38,-33zm-44 38l-39 38c13,-13 26,-26 39,-38zm140 -112l-42 31c14,-11 28,-21 42,-31zm-47 34l-43 35c14,-12 29,-23 43,-35zm149 -99l-46 28c15,-9 30,-19 46,-28zm-49 30l-46 31c15,-11 30,-21 46,-31zm156 -86l-50 25c17,-9 33,-17 50,-25zm-53 27l-47 25c15,-8 31,-17 47,-25zm167 -74l-53 21c18,-8 35,-14 53,-21zm-58 23l-50 22c16,-8 33,-15 50,-22zm176 -60l-56 16c18,-5 37,-11 56,-16zm-61 18l-53 18c18,-7 35,-12 53,-18zm183 -44l-58 11c19,-4 39,-8 58,-11zm-64 12l-56 14c19,-5 38,-10 56,-14zm864 88l-50 -21c17,7 33,14 50,21zm-50 -21l-50 -19c17,6 34,12 50,19zm145 68l-47 -25c16,8 32,16 47,25zm-47 -25l-48 -22c16,7 32,15 48,22zm138 79l-45 -28c15,9 30,18 45,28zm-45 -28l-46 -26c16,8 31,17 46,26zm132 88l-43 -31c15,10 29,20 43,31zm-43 -31l-44 -29c15,9 30,19 44,29zm124 97l-40 -34c14,12 27,23 40,34zm-40 -34l-41 -32c14,10 28,21 41,32zm117 107l-38 -37c13,12 25,24 38,37zm-38 -37l-39 -36c14,12 26,24 39,36zm108 115l-34 -40c11,13 23,26 34,40zm-34 -40l-36 -38c12,12 24,25 36,38zm99 123l-32 -42c11,14 22,28 32,42zm-32 -42l-33 -41c12,13 23,27 33,41zm90 130l-28 -44c10,14 19,29 28,44zm-28 -44l-30 -44c10,14 20,29 30,44zm80 137l-25 -47c9,15 17,31 25,47zm-25 -47l-27 -46c9,15 18,30 27,46zm70 143l-22 -48c8,16 15,32 22,48zm-22 -48l-23 -48c8,15 16,31 23,48zm59 149l-18 -51c6,17 12,34 18,51zm-18 -51l-19 -50c6,17 13,33 19,50zm48 155l-14 -53c5,18 9,35 14,53zm-14 -53l-16 -51c6,17 11,34 16,51zm35 160l-10 -54c4,18 7,36 10,54zm-10 -54l-11 -53c4,18 8,35 11,53zm23 164l-5 -55c2,18 4,36 5,55zm-5 -55l-8 -55c3,18 6,36 8,55zm10 167l-1 -56c0,19 1,38 1,56zm-1 -56l-4 -56c2,19 3,37 4,56zm-5 183l4 -60c-1,20 -2,40 -4,60zm4 -65l2 -62c0,21 -1,41 -2,62zm-21 188l10 -58c-3,20 -6,39 -10,58zm10 -60l7 -59c-2,20 -4,39 -7,59zm-37 180l14 -54c-4,18 -9,36 -14,54zm15 -58l11 -56c-3,19 -7,38 -11,56zm-53 177l0 0c6,-18 13,-36 19,-54l-19 54zm20 -59l17 -55c-5,18 -11,37 -17,55zm-67 169l22 -50c-7,17 -14,33 -22,50zm25 -56l21 -51c-7,17 -14,34 -21,51zm-81 161l26 -46c-8,16 -17,31 -26,46zm28 -50l24 -48c-7,16 -15,32 -24,48zm-94 152l29 -42c-9,14 -19,28 -29,42zm34 -49l28 -46c-9,16 -19,31 -28,46zm-38 54l0 0 -31 42c11,-14 21,-28 31,-42z"/>
   <path class="fil2" d="M1933 794l0 151 0 14 -283 144 -449 229c-14,8 -27,17 -38,28 -11,10 -20,23 -27,37l0 1 -1 0 0 0 0 1 0 0 0 0 0 0 0 1 0 0 0 0 -1 0 0 0 0 1 0 0 0 0 0 0 0 1 0 0 -1 1 0 0 0 0 0 0 0 0 0 1 0 0 0 0 0 0 -1 1 0 0 0 0 0 0 0 1 0 0 0 0 0 0 0 0 0 1 -1 0 0 0 0 0 0 0 0 1c-3,7 -5,14 -7,21l0 0 0 0 0 0 0 0 0 0 0 1 0 0 0 0c-1,2 -1,4 -2,6 -1,9 -2,19 -2,28l-1 0 0 0 0 0 0 1 0 0 1 1 0 0c0,2 -1,3 -1,4l0 18 0 39 0 0 73 36 0 0 0 0 10 5 145 73 0 0 0 0 304 153 443 222c11,6 22,11 33,14l0 0 0 0c13,4 27,6 40,6 13,0 26,-2 39,-6 11,-3 22,-7 32,-13l1 0 0 0 3 -2 0 0 1 0 440 -221 305 -153 0 228 -406 204 -415 208 -414 -208 -349 -175 -57 -29 -102 -51 -126 -63 0 0 0 0 0 177c0,2 0,5 0,7l0 18 0 451 0 18 0 62 73 37c3,2 6,3 9,5l1 0 70 35 379 190 443 223c11,6 22,10 33,13l0 1c13,3 27,5 40,5 13,0 26,-1 39,-5 11,-3 22,-7 32,-13l1 0 99 -49 -1 -1 346 -174 305 -153 0 227 -406 204 -415 208 0 236 0 83 0 205 0 30 0 0c899,0 1627,-729 1627,-1628 0,-710 -455,-1314 -1090,-1536l20 -62 0 0c3,-9 4,-19 1,-29 -6,-29 -35,-47 -64,-41l-182 40 0 0 -178 39c-10,1 -20,6 -28,13 -22,21 -24,55 -3,77l125 137 0 0 0 0 121 134c7,9 16,16 27,19 29,9 59,-7 68,-35l22 -68c540,191 927,707 927,1312 0,690 -501,1262 -1158,1374l0 -164 281 -142 442 -222c27,-11 49,-29 64,-52 17,-24 26,-53 26,-84l0 -451 0 -17 0 -1 0 -10 0 0 0 -74 0 -89 -140 70 -87 44 0 0 -115 58 -291 146 -415 208 -414 -208 -406 -204 0 -25 0 0 0 -201 304 152 443 223c11,6 22,10 33,14l0 0c13,3 27,5 40,5 13,0 26,-1 39,-5 11,-3 22,-7 32,-13l1 0 99 -49 -1 -1 346 -174 77 -38 0 0 120 -60 108 -54 66 -33 71 -36 1 0 15 -8 14 -7 60 -31 0 -51 0 -10c1,-2 1,-5 1,-8l0 -451 0 -18c0,-2 0,-5 -1,-8l0 -2 0 -6 0 -4 0 0c-2,-20 -8,-39 -18,-56 -11,-21 -28,-40 -49,-54 -5,-3 -9,-5 -13,-8 -16,-8 -26,-5 -41,2l-230 116 0 0 -1 0 -281 141 -415 208 -414 -208 -282 -141 142 -73 0 0 141 -71 414 -211 0 -144 0 -93 0 -83 0 0 0 -235 0 0 -1 0c-13,0 -27,0 -41,1l-2 0c-12,0 -25,0 -38,1l-5 0c-12,1 -23,2 -34,2l-10 1c-9,1 -19,2 -28,3 -6,0 -11,1 -17,2 -7,0 -14,1 -21,2 -7,1 -15,2 -23,3l-15 2c-787,114 -1392,791 -1392,1610 0,711 455,1315 1090,1537l-20 62 0 0c-3,9 -4,19 -2,28 7,30 36,48 65,42l181 -40 0 0 179 -39c10,-2 20,-6 28,-13 22,-21 24,-55 3,-77l-125 -137 0 0 0 0 -122 -134c-6,-9 -15,-16 -26,-19 -29,-9 -59,7 -69,35l-21 68c-540,-191 -927,-707 -927,-1313 0,-689 501,-1261 1158,-1373z"/>
  </g>
 </g>
</svg>
