<?xml version="1.0" encoding="UTF-8"?>
<!DOCTYPE svg PUBLIC "-//W3C//DTD SVG 1.1//EN" "http://www.w3.org/Graphics/SVG/1.1/DTD/svg11.dtd">
<!-- Creator: CorelDRAW X7 -->
<svg xmlns="http://www.w3.org/2000/svg" xml:space="preserve" width="86.6986mm" height="18.4572mm" version="1.1" style="shape-rendering:geometricPrecision; text-rendering:geometricPrecision; image-rendering:optimizeQuality; fill-rule:evenodd; clip-rule:evenodd"
viewBox="0 0 8670 1846"
 xmlns:xlink="http://www.w3.org/1999/xlink">
 <defs>
  <style type="text/css">
   <![CDATA[
    .fil0 {fill:#332C2B}
    .fil1 {fill:#332C2B;fill-rule:nonzero}
   ]]>
  </style>
 </defs>
 <g id="Layer_x0020_1">
  <metadata id="CorelCorpID_0Corel-Layer"/>
  <g id="_681064384">
   <path class="fil0" d="M772 162l0 83 0 9 -157 79 -249 127c-8,4 -15,9 -21,15 -6,6 -11,13 -15,21l0 1 0 0 0 0 0 0 0 0 0 0 0 0 0 0 -1 1 0 0 0 0 0 0 0 0 0 0 0 0 0 0 0 1 0 0 0 0 0 0 0 0 0 0 -1 1 0 0 0 0 0 0 0 0 0 0 0 0 0 1 0 0 0 0 0 0 0 0 0 0 0 0 0 0 0 1 0 0 0 0 -1 0 0 0c-1,4 -2,8 -3,12l0 0 0 0 -1 0 0 0 0 0 0 0 0 0 0 0c0,1 0,3 0,4 -1,5 -2,10 -2,15l0 0 0 0 0 0 0 1 0 0 0 0 0 0c0,1 0,2 0,3l0 9 0 22 0 0 40 20 0 0 0 0 6 3 80 40 0 0 0 0 169 85 245 123c6,3 12,6 18,8l0 0 1 0c7,2 14,3 22,3 7,0 14,-1 21,-3 6,-2 12,-4 18,-7l1 -1 -1 0 2 0 0 0 1 -1 244 -122 169 -85 0 127 -225 112 -230 116 -230 -116 -194 -97 -31 -15 -56 -29 -70 -35 0 0 0 0 0 98c0,2 0,3 0,5l0 9 0 250 0 10 0 35 40 20c2,1 4,2 5,3l1 -1 39 20 210 106 245 123c6,3 12,6 18,7l0 0c8,2 15,4 23,4 7,0 14,-1 21,-3 6,-2 12,-4 18,-7l1 -1 54 -27 0 0 192 -96 169 -85 0 125 -225 113 -230 115 0 131 0 46 0 114 0 16 0 0c498,0 901,-403 901,-901 0,-394 -252,-728 -604,-851l11 -35 0 0c2,-5 2,-10 1,-15 -4,-17 -20,-27 -36,-23l-100 22 0 0 -99 21c-6,1 -11,4 -16,8 -12,11 -13,30 -2,42l70 76 0 0 0 0 67 74c4,5 9,9 15,11 16,5 33,-4 38,-20l12 -37c299,106 513,391 513,727 0,382 -277,699 -641,760l0 -90 156 -79 245 -123c14,-6 26,-16 35,-29 9,-13 15,-29 15,-46l0 -250 0 -9 0 -1 0 -5 0 -1 0 -41 0 -49 -78 39 -48 24 0 0 -64 32 -161 81 -230 116 -230 -116 -225 -113 0 -14 0 0 0 -111 169 85 245 123c6,3 12,6 18,7l0 1c8,2 15,3 23,3 7,0 14,-1 21,-3 6,-2 12,-4 18,-7l1 -1 54 -27 0 0 192 -96 42 -22 0 0 67 -33 60 -30 36 -18 40 -20 0 0 8 -5 8 -3 34 -17 0 -29 0 -5c0,-2 0,-3 0,-5l0 -250 0 -9c0,-2 0,-3 0,-5l0 -1 0 -3 -1 -3 0 0c-1,-11 -4,-21 -9,-31 -7,-11 -16,-22 -28,-29 -2,-2 -5,-3 -7,-5 -9,-4 -15,-3 -23,1l-127 64 0 0 0 0 -156 79 -230 115 -230 -115 -156 -79 79 -40 0 0 77 -39 230 -117 0 -80 0 -52 0 -46 0 0 0 -130 0 0 0 0c-8,0 -15,1 -23,1l-1 0c-7,0 -14,0 -21,1l-3 0c-7,0 -13,0 -19,1l-6 0c-5,1 -10,1 -15,2 -3,0 -6,0 -10,1 -3,0 -7,1 -11,1 -4,0 -8,1 -13,2l-8 1c-436,63 -772,438 -772,892 0,393 253,728 604,851l-11 34 0 1c-1,4 -2,10 0,15 3,16 19,26 35,23l101 -22 0 0 99 -22c5,-1 11,-3 15,-7 12,-11 13,-30 2,-43l-69 -76 0 0 0 0 -68 -74c-3,-5 -8,-8 -14,-10 -16,-5 -33,3 -38,19l-12 38c-299,-106 -514,-392 -514,-727 0,-382 278,-699 642,-761z"/>
   <path class="fil1" d="M2476 1187l-132 0 0 -519 32 0 44 50c21,-19 45,-34 72,-44 27,-11 55,-16 85,-16 31,0 61,6 89,18 28,12 53,29 74,50 21,21 37,46 50,74 12,28 18,58 18,90l0 297 -132 0 0 -297c0,-13 -3,-26 -8,-38 -6,-12 -12,-23 -22,-32 -9,-9 -19,-16 -31,-21 -12,-5 -25,-8 -38,-8 -14,0 -27,3 -39,8 -13,5 -23,12 -33,21 -8,9 -16,20 -21,32 -5,12 -8,25 -8,38l0 297zm710 0l-302 0 0 -132 302 0c9,0 17,-3 23,-10 7,-6 10,-14 10,-23 0,-9 -3,-16 -10,-18 -6,-3 -14,-5 -23,-5l-137 0c-23,0 -45,-4 -65,-13 -20,-9 -37,-20 -52,-35 -15,-15 -26,-33 -35,-53 -9,-20 -13,-41 -13,-64 0,-23 4,-45 13,-65 9,-20 20,-37 35,-52 15,-15 32,-27 52,-35 20,-9 42,-13 65,-13l267 0 0 132 -267 0c-9,0 -17,3 -23,9 -7,7 -10,15 -10,24 0,9 3,17 10,23 6,7 14,10 23,10l137 0c23,0 44,4 64,12 20,7 38,18 53,32 14,13 26,29 35,48 8,19 13,40 13,63 0,23 -5,44 -13,64 -9,20 -21,37 -35,52 -15,15 -33,27 -53,36 -20,8 -41,13 -64,13zm616 -61c-11,10 -22,19 -34,27 -12,9 -25,16 -38,23 -13,6 -27,11 -41,15 -14,3 -28,5 -43,5 -32,0 -62,-6 -90,-17 -28,-11 -53,-27 -74,-48 -21,-21 -37,-46 -49,-76 -13,-30 -19,-63 -19,-100l0 -287 132 0 0 287c0,17 3,33 8,46 5,14 13,26 22,35 9,9 19,16 31,21 12,5 25,8 39,8 14,0 27,-4 39,-10 12,-6 22,-15 31,-25 10,-10 17,-22 22,-35 5,-13 8,-26 8,-40l0 -287 132 0 0 519 -32 0 -44 -61zm309 258l-133 0 0 -716 32 0 53 62c12,-11 25,-22 39,-31 15,-11 29,-19 45,-26 15,-8 31,-13 47,-18 17,-4 33,-6 50,-6 37,0 71,7 103,20 32,13 60,31 84,55 24,24 43,53 57,87 14,33 21,71 21,112 0,42 -7,81 -21,115 -14,34 -33,63 -57,86 -24,24 -52,42 -84,55 -32,12 -66,19 -103,19 -11,0 -23,-2 -34,-4 -12,-3 -23,-6 -34,-11 -12,-4 -22,-9 -33,-14 -11,-6 -21,-12 -32,-17l0 232zm265 -461c0,-22 -3,-42 -10,-59 -7,-18 -16,-33 -28,-45 -12,-12 -26,-21 -42,-28 -17,-6 -34,-9 -52,-9 -18,0 -35,3 -51,9 -16,7 -30,16 -42,28 -12,12 -21,27 -28,45 -7,17 -11,37 -11,59 0,21 4,40 11,57 7,18 16,33 28,45 12,12 26,22 42,28 16,7 33,11 51,11 18,0 35,-4 52,-11 16,-6 30,-16 42,-28 12,-12 21,-27 28,-45 7,-17 10,-36 10,-57zm707 264l-32 0 -51 -72c-13,12 -26,22 -40,32 -14,10 -29,19 -44,26 -16,7 -32,13 -48,17 -16,4 -33,6 -50,6 -36,0 -71,-7 -103,-20 -32,-14 -60,-33 -84,-58 -24,-24 -43,-53 -57,-86 -14,-34 -21,-70 -21,-109 0,-39 7,-76 21,-109 14,-34 33,-63 57,-87 24,-25 52,-44 84,-58 32,-14 67,-21 103,-21 12,0 24,1 36,3 13,2 25,5 37,10 12,4 23,10 33,17 10,7 19,16 26,26l0 -242 133 0 0 725zm-133 -264c0,-18 -4,-36 -10,-53 -7,-17 -17,-32 -29,-45 -12,-13 -26,-24 -42,-31 -16,-8 -33,-12 -51,-12 -18,0 -35,3 -51,9 -16,7 -30,16 -41,28 -12,12 -21,27 -28,45 -7,17 -10,37 -10,59 0,19 3,37 10,54 7,17 16,32 28,45 11,13 25,23 41,30 16,8 33,12 51,12 18,0 35,-4 51,-12 16,-8 30,-19 42,-32 12,-13 22,-28 29,-45 6,-17 10,-34 10,-52zm736 264l-32 0 -51 -72c-13,12 -26,22 -40,32 -14,10 -29,19 -45,26 -15,7 -31,13 -47,17 -17,4 -33,6 -50,6 -36,0 -71,-6 -103,-18 -32,-12 -60,-30 -84,-54 -24,-23 -43,-52 -57,-86 -14,-34 -21,-72 -21,-115 0,-41 7,-78 21,-111 14,-34 33,-63 57,-87 24,-24 52,-43 84,-57 32,-13 67,-20 103,-20 17,0 33,2 50,6 17,5 32,10 48,18 15,7 30,16 44,26 14,10 27,21 40,32l51 -61 32 0 0 518zm-133 -264c0,-18 -4,-36 -11,-53 -7,-17 -16,-32 -28,-45 -12,-13 -26,-24 -42,-31 -16,-8 -33,-12 -51,-12 -18,0 -35,3 -51,9 -16,6 -30,15 -42,27 -11,12 -21,27 -27,44 -7,18 -11,38 -11,61 0,22 4,42 11,60 6,17 16,32 27,44 12,12 26,21 42,27 16,6 33,10 51,10 18,0 35,-4 51,-12 16,-8 30,-19 42,-32 12,-13 21,-28 28,-45 7,-17 11,-34 11,-52zm494 264c-32,0 -62,-7 -90,-19 -29,-12 -53,-28 -74,-50 -22,-21 -38,-45 -50,-73 -12,-28 -18,-58 -18,-90l0 -154 -65 0 0 -132 65 0 0 -207 131 0 0 207 201 0 0 132 -201 0 0 154c0,14 3,26 8,39 5,12 12,22 21,31 9,9 20,17 32,22 13,5 26,8 40,8l100 0 0 132 -100 0zm380 -127c5,1 10,2 16,3 5,0 10,1 15,1 13,0 26,-2 37,-6 12,-3 24,-8 34,-15 11,-7 20,-15 28,-24 8,-10 15,-20 20,-32l97 97c-12,18 -26,33 -42,47 -16,14 -34,26 -52,36 -19,9 -38,17 -59,22 -20,5 -41,7 -63,7 -36,0 -71,-7 -103,-20 -32,-14 -60,-33 -84,-57 -24,-24 -43,-53 -57,-86 -14,-34 -21,-70 -21,-110 0,-41 7,-79 21,-113 14,-33 33,-62 57,-86 24,-24 52,-43 84,-56 32,-13 67,-20 103,-20 22,0 43,3 64,8 20,5 40,12 58,22 19,10 36,22 52,36 17,14 31,29 43,47l-248 299zm68 -273c-6,-2 -12,-4 -18,-4 -6,-1 -12,-1 -19,-1 -18,0 -35,3 -51,10 -16,6 -30,16 -42,28 -11,12 -21,27 -27,44 -7,18 -11,37 -11,59 0,5 1,10 1,16 1,6 1,13 2,19 2,6 3,12 5,18 1,6 3,11 6,15l154 -204zm409 350c0,12 -2,23 -6,33 -4,10 -10,19 -18,26 -7,8 -16,13 -26,18 -10,4 -21,6 -32,6 -12,0 -22,-2 -33,-6 -10,-5 -19,-10 -26,-18 -8,-7 -14,-16 -18,-26 -5,-10 -7,-21 -7,-33 0,-11 2,-22 7,-32 4,-10 10,-18 18,-26 7,-7 16,-13 26,-18 11,-4 21,-6 33,-6 11,0 22,2 32,6 10,5 19,11 26,18 8,8 14,16 18,26 4,10 6,21 6,32zm254 -610c0,12 -2,24 -7,35 -5,10 -11,19 -19,27 -8,8 -18,15 -28,19 -11,5 -23,7 -35,7 -12,0 -24,-2 -35,-7 -10,-4 -20,-11 -28,-19 -8,-8 -14,-17 -19,-27 -4,-11 -7,-23 -7,-35 0,-12 3,-23 7,-34 5,-11 11,-20 19,-28 8,-8 18,-14 28,-19 11,-5 23,-7 35,-7 12,0 24,2 35,7 10,5 20,11 28,19 8,8 14,17 19,28 5,11 7,22 7,34zm-23 660l-133 0 0 -519 133 0 0 519zm233 0l-132 0 0 -519 32 0 44 50c21,-19 45,-34 72,-44 27,-11 55,-16 84,-16 32,0 62,6 90,18 28,12 53,29 74,50 21,21 37,46 49,74 12,28 18,58 18,90l0 297 -132 0 0 -297c0,-13 -2,-26 -8,-38 -5,-12 -12,-23 -21,-32 -9,-9 -19,-16 -31,-21 -12,-5 -25,-8 -39,-8 -13,0 -27,3 -39,8 -12,5 -23,12 -32,21 -9,9 -16,20 -21,32 -5,12 -8,25 -8,38l0 297zm585 0l-132 0 0 -387 -64 0 0 -132 64 0 0 -25c0,-32 6,-62 18,-90 13,-28 29,-52 50,-73 21,-21 46,-37 74,-50 28,-12 58,-18 90,-18l99 0 0 132 -99 0c-14,0 -27,2 -39,8 -12,5 -23,12 -32,20 -9,9 -16,20 -21,32 -5,12 -8,25 -8,39l0 25 163 0 0 132 -163 0 0 387zm717 -264c0,38 -7,74 -21,108 -14,33 -33,62 -57,86 -24,25 -52,44 -84,58 -32,14 -67,21 -103,21 -37,0 -71,-7 -103,-21 -32,-14 -60,-33 -84,-58 -24,-24 -43,-53 -57,-86 -14,-34 -21,-70 -21,-108 0,-40 7,-76 21,-110 14,-33 33,-62 57,-87 24,-24 52,-43 84,-57 32,-14 66,-21 103,-21 36,0 71,7 103,20 32,13 60,31 84,55 24,24 43,53 57,87 14,34 21,71 21,113zm-134 0c0,-22 -3,-41 -10,-58 -7,-17 -16,-32 -28,-45 -12,-12 -26,-22 -42,-28 -16,-7 -33,-10 -51,-10 -18,0 -35,3 -51,10 -16,6 -30,16 -42,28 -12,13 -21,28 -28,45 -7,17 -10,36 -10,58 0,20 3,38 10,55 7,17 16,32 28,45 12,12 26,22 42,30 16,7 33,11 51,11 18,0 35,-4 51,-11 16,-6 30,-16 42,-28 12,-12 21,-27 28,-45 7,-17 10,-36 10,-57z"/>
  </g>
 </g>
</svg>
