<?xml version="1.0" encoding="UTF-8"?>
<!DOCTYPE svg PUBLIC "-//W3C//DTD SVG 1.1//EN" "http://www.w3.org/Graphics/SVG/1.1/DTD/svg11.dtd">
<!-- Creator: CorelDRAW X7 -->
<svg xmlns="http://www.w3.org/2000/svg" xml:space="preserve" width="8.1278mm" height="8.1278mm" version="1.1" style="shape-rendering:geometricPrecision; text-rendering:geometricPrecision; image-rendering:optimizeQuality; fill-rule:evenodd; clip-rule:evenodd"
viewBox="0 0 813 813"
 xmlns:xlink="http://www.w3.org/1999/xlink">
 <defs>
  <style type="text/css">
   <![CDATA[
    .fil2 {fill:#FEFEFE}
    .fil0 {fill:#1393D2}
    .fil1 {fill:#0083C4}
   ]]>
  </style>
 </defs>
 <g id="Layer_x0020_1">
  <metadata id="CorelCorpID_0Corel-Layer"/>
  <g id="_963006736">
   <rect class="fil0" width="813" height="813" rx="111" ry="111"/>
   <path class="fil1" d="M207 238l-6 7c2,-3 4,-5 6,-7zm275 575l-371 0c-61,0 -111,-50 -111,-112l0 -262 160 -212c47,-65 119,-110 202,-122l3 -1c2,0 3,0 5,0 1,-1 2,-1 3,-1 2,0 3,0 4,0 1,0 3,0 5,-1l2 0c2,0 4,0 6,0l1 0c3,0 5,0 7,0l1 -1c2,0 5,0 7,0l0 0 0 0 0 36 19 -24c0,-1 1,-2 1,-2 2,-1 4,-2 6,-3l33 -7 0 0 34 -7c5,-1 11,2 12,7 0,2 0,4 0,6l0 0 -4 11c119,42 204,155 204,288 0,74 -26,142 -69,194l-160 213zm-282 -566l-6 7c2,-3 4,-5 6,-7zm22 -26l-6 7c2,-2 4,-5 6,-7zm-7 8l-7 7c2,-2 4,-4 7,-7zm24 -23l-7 6c2,-2 5,-4 7,-6zm-8 7l-8 7c3,-2 5,-4 8,-7zm26 -21l-8 6c3,-2 5,-4 8,-6zm-9 7l-8 6c3,-2 5,-4 8,-6zm28 -19l-9 5c3,-1 6,-3 9,-5zm-9 6l-9 6c3,-2 6,-4 9,-6zm29 -16l-9 4c3,-1 6,-3 9,-4zm-10 5l-9 4c3,-1 6,-3 9,-4zm31 -14l-9 4c3,-2 6,-3 9,-4zm-11 4l-9 4c3,-1 6,-3 9,-4zm34 -11l-11 3c3,-1 7,-2 11,-3zm-12 3l-10 4c3,-2 7,-3 10,-4zm34 -8l-10 2c3,-1 7,-1 10,-2zm-11 2l-11 3c3,-1 7,-2 11,-3zm161 17l-9 -4c3,1 6,2 9,4zm-9 -4l-9 -4c3,1 6,3 9,4zm27 13l-9 -5c3,1 6,3 9,5zm-9 -5l-9 -4c3,1 6,3 9,4zm26 15l-8 -6c3,2 6,4 8,6zm-8 -6l-9 -4c3,1 6,3 9,4zm25 17l-8 -6c2,2 5,4 8,6zm-8 -6l-9 -5c3,1 6,3 9,5zm23 18l-8 -6c3,2 5,4 8,6zm-8 -6l-7 -6c2,2 5,4 7,6zm22 20l-7 -7c3,2 5,5 7,7zm-7 -7l-7 -7c2,3 5,5 7,7zm20 22l-6 -8c2,3 4,5 6,8zm-6 -8l-7 -7c2,2 5,5 7,7zm19 23l-6 -8c2,3 4,6 6,8zm-6 -8l-7 -7c3,2 5,5 7,7zm16 25l-5 -9c2,3 4,6 5,9zm-5 -9l-5 -8c1,3 3,6 5,8zm15 26l-5 -9c2,3 4,6 5,9zm-5 -9l-5 -8c2,3 4,5 5,8zm14 27l-4 -9c1,3 2,6 4,9zm-4 -9l-5 -9c2,3 3,6 5,9zm11 28l-4 -9c1,3 2,6 4,9zm-4 -9l-3 -10c1,3 2,6 3,10zm9 29l-2 -10c0,3 1,6 2,10zm-2 -10l-3 -10c1,3 2,7 3,10zm6 30l-2 -10c1,3 2,6 2,10zm-2 -10l-2 -10c1,3 2,6 2,10zm5 30l-1 -10c0,3 0,7 1,10zm-1 -10l-2 -10c1,3 1,7 2,10zm1 31l0 -10c0,3 0,7 0,10zm0 -10l0 -11c0,4 0,7 0,11zm-1 34l1 -11c0,4 0,7 -1,11zm1 -12l0 -12c0,4 0,8 0,12zm-4 35l2 -11c-1,4 -1,8 -2,11zm2 -11l1 -11c0,4 0,7 -1,11zm-7 34l3 -11c-1,4 -2,7 -3,11zm3 -11l2 -11c-1,4 -1,7 -2,11zm-10 33l0 0c1,-3 2,-7 3,-10l-3 10zm4 -11l3 -10c-1,3 -2,7 -3,10zm-13 32l4 -10c-1,3 -2,6 -4,10zm5 -11l4 -10c-1,4 -3,7 -4,10zm-15 30l5 -8c-2,3 -4,5 -5,8zm5 -9l4 -9c-1,3 -2,6 -4,9zm-18 28l6 -8c-2,3 -4,6 -6,8zm7 -9l5 -8c-2,3 -4,5 -5,8zm-7 10l0 0 -6 8c2,-2 4,-5 6,-8z"/>
   <path class="fil2" d="M362 149l0 28 0 3 -53 27 -84 43c-3,1 -5,3 -7,5 -2,2 -4,4 -5,7l0 0 0 0 0 0 0 0 0 0 0 0 0 0 0 0 0 0 0 0 0 1 0 0 0 0 0 0 0 0 0 0 0 0 0 0 -1 0 0 0 0 0 0 0 0 0 0 0 0 0 0 0 0 0 0 0 0 0 0 0 0 0 0 1 0 0 0 0 0 0 0 0 0 0 0 0 0 0 0 0 0 0 0 0c0,1 -1,3 -1,4l0 0 0 0 0 0 0 0 0 0 0 0 0 0 0 0c0,0 0,1 -1,1 0,2 0,4 0,5l0 0 0 1 0 0 0 0 0 0 0 0 0 0c0,0 0,0 0,1l0 3 0 7 0 0 13 7 0 0 0 0 2 1 28 14 0 0 0 0 57 28 83 42c2,1 4,2 6,3l0 0 0 0c2,0 5,1 7,1 3,0 5,-1 8,-1 2,-1 4,-2 6,-3l0 0 0 0 0 0 0 0 1 0 82 -42 57 -28 0 42 -76 39 -78 39 -77 -39 -66 -33 -10 -6 -20 -9 -23 -12 0 0 0 0 0 33c0,1 0,1 0,2l0 3 0 85 0 3 0 12 13 6c1,1 2,1 2,1l0 0 13 7 72 36 83 41c2,1 4,2 6,3l0 0c2,1 5,1 7,1 3,0 5,0 8,-1 2,-1 4,-1 6,-2l0 -1 18 -9 0 0 65 -32 57 -29 0 42 -76 39 -78 39 0 44 0 16 0 38 0 6 0 0c169,0 305,-137 305,-306 0,-133 -85,-246 -204,-288l4 -11 0 0c0,-2 0,-4 0,-6 -1,-5 -7,-9 -12,-7l-34 7 0 0 -33 7c-2,1 -4,1 -6,3 -4,4 -4,10 0,14l23 26 0 0 0 0 23 25c1,2 3,3 5,4 5,1 11,-2 13,-7l4 -13c101,36 173,133 173,246 0,130 -93,237 -217,258l0 -31 53 -26 83 -42c5,-2 9,-6 12,-10 3,-4 5,-10 5,-15l0 -85 0 -3 0 0 0 -2 0 0 0 -14 0 -17 -26 13 -17 8 0 0 -21 11 -55 28 -78 39 -77 -39 -76 -39 0 -4 -1 0 0 -38 58 29 83 41c2,1 4,2 6,3l0 0c2,1 5,1 7,1 3,0 5,0 8,-1 2,-1 4,-1 6,-2l0 -1 18 -9 0 0 65 -32 14 -8 0 0 23 -11 20 -10 13 -6 13 -7 0 0 3 -1 3 -2 11 -5 0 -10 0 -2c0,0 0,-1 0,-1l0 -85 0 -3c0,-1 0,-1 0,-2l0 0 0 -1 0 -1 0 0c-1,-4 -2,-7 -4,-11 -2,-4 -5,-7 -9,-10 -1,0 -1,-1 -2,-1 -3,-2 -5,-1 -8,0l-43 22 0 0 0 0 -53 26 -78 39 -77 -39 -53 -26 26 -14 0 0 27 -13 77 -40 0 -27 0 -17 0 -16 0 0 0 -44 0 0 0 0c-2,0 -5,0 -7,0l-1 0c-2,0 -4,1 -7,1l-1 0c-2,0 -4,0 -6,0l-2 0c-2,0 -4,1 -5,1 -1,0 -2,0 -4,0 -1,0 -2,0 -3,0 -2,1 -3,1 -5,1l-3 0c-147,22 -261,149 -261,302 0,134 86,247 205,288l-4 12 0 0c-1,2 -1,4 0,5 1,6 6,9 12,8l34 -7 0 0 33 -8c2,0 4,-1 6,-2 4,-4 4,-10 0,-14l-23 -26 0 0 0 0 -23 -25c-1,-2 -3,-3 -5,-4 -5,-2 -11,1 -13,7l-4 13c-101,-36 -174,-133 -174,-247 0,-129 94,-236 217,-257z"/>
  </g>
 </g>
</svg>
