<?xml version="1.0" encoding="UTF-8"?>
<!DOCTYPE svg PUBLIC "-//W3C//DTD SVG 1.1//EN" "http://www.w3.org/Graphics/SVG/1.1/DTD/svg11.dtd">
<!-- Creator: CorelDRAW X7 -->
<svg xmlns="http://www.w3.org/2000/svg" xml:space="preserve" width="6.0958mm" height="6.0958mm" version="1.1" style="shape-rendering:geometricPrecision; text-rendering:geometricPrecision; image-rendering:optimizeQuality; fill-rule:evenodd; clip-rule:evenodd"
viewBox="0 0 610 610"
 xmlns:xlink="http://www.w3.org/1999/xlink">
 <defs>
  <style type="text/css">
   <![CDATA[
    .fil2 {fill:#FEFEFE}
    .fil0 {fill:#1393D2}
    .fil1 {fill:#0083C4}
   ]]>
  </style>
 </defs>
 <g id="Layer_x0020_1">
  <metadata id="CorelCorpID_0Corel-Layer"/>
  <g id="_962992528">
   <rect class="fil0" width="610" height="610" rx="84" ry="84"/>
   <path class="fil1" d="M155 178l-4 6c1,-2 3,-4 4,-6zm206 432l-277 0c-46,0 -84,-38 -84,-84l0 -197 120 -159c35,-49 90,-83 152,-92l2 0c1,0 2,0 3,0 1,0 2,-1 3,-1 1,0 2,0 3,0 1,0 2,0 3,0l2 0c1,0 3,-1 5,-1l0 0c2,0 4,0 6,0l0 0c2,0 4,0 6,0l0 0 0 0 0 27 14 -19c0,0 0,0 1,-1 1,-1 2,-1 4,-2l25 -5 0 0 25 -6c4,-1 8,2 9,6 1,1 0,3 0,4l0 0 -3 9c90,31 154,116 154,216 0,55 -20,106 -53,145l-120 160zm-211 -425l-4 5c1,-1 3,-3 4,-5zm17 -19l-5 5c1,-2 3,-3 5,-5zm-6 6l-5 5c2,-1 3,-3 5,-5zm18 -17l-5 4c2,-1 3,-3 5,-4zm-6 5l-6 5c2,-2 4,-3 6,-5zm20 -16l-6 5c2,-2 4,-3 6,-5zm-7 5l-6 5c2,-2 4,-3 6,-5zm21 -14l-6 4c2,-1 4,-3 6,-4zm-7 4l-6 5c2,-2 4,-3 6,-5zm22 -12l-7 4c2,-1 5,-3 7,-4zm-7 4l-7 4c2,-2 4,-3 7,-4zm23 -10l-7 3c2,-1 5,-2 7,-3zm-8 3l-7 3c2,-1 4,-2 7,-3zm25 -9l-8 3c2,-1 5,-2 8,-3zm-9 3l-7 2c2,0 5,-1 7,-2zm26 -6l-8 1c2,0 5,-1 8,-1zm-9 2l-8 1c3,0 5,-1 8,-1zm121 12l-7 -3c3,1 5,2 7,3zm-7 -3l-7 -3c3,1 5,2 7,3zm21 9l-7 -3c2,1 4,2 7,3zm-7 -3l-7 -3c3,1 5,2 7,3zm20 11l-7 -4c2,1 4,3 7,4zm-7 -4l-6 -4c2,2 4,3 6,4zm19 12l-6 -4c2,2 4,3 6,4zm-6 -4l-6 -4c2,1 4,3 6,4zm17 14l-5 -5c1,2 3,3 5,5zm-5 -5l-6 -5c2,2 4,3 6,5zm16 15l-5 -5c1,2 3,3 5,5zm-5 -5l-6 -5c2,1 4,3 6,5zm15 16l-5 -6c2,2 3,4 5,6zm-5 -6l-5 -5c2,2 3,4 5,5zm14 18l-5 -6c2,2 3,4 5,6zm-5 -6l-4 -6c1,2 3,4 4,6zm13 18l-4 -6c1,2 3,4 4,6zm-4 -6l-4 -6c1,2 3,4 4,6zm11 19l-3 -7c1,3 2,5 3,7zm-3 -7l-4 -6c1,2 3,4 4,6zm10 21l-3 -7c1,2 2,4 3,7zm-3 -7l-4 -7c2,2 3,5 4,7zm8 21l-3 -7c1,2 2,4 3,7zm-3 -7l-2 -7c1,2 2,4 2,7zm7 21l-2 -7c1,3 1,5 2,7zm-2 -7l-2 -7c1,2 1,5 2,7zm5 23l-1 -8c0,2 1,5 1,8zm-1 -8l-2 -8c1,3 1,5 2,8zm3 23l-1 -8c0,3 1,5 1,8zm-1 -8l-1 -7c1,2 1,5 1,7zm2 24l-1 -8c1,2 1,5 1,8zm-1 -8l0 -8c0,3 0,5 0,8zm0 26l0 -9c0,3 0,6 0,9zm0 -10l1 -8c0,3 0,6 -1,8zm-3 27l2 -8c-1,3 -1,5 -2,8zm2 -9l1 -8c-1,3 -1,6 -1,8zm-5 26l2 -8c-1,3 -2,5 -2,8zm2 -8l1 -8c0,2 -1,5 -1,8zm-8 24l0 0c1,-2 2,-5 3,-7l-3 7zm3 -8l2 -8c0,3 -1,6 -2,8zm-9 24l3 -7c-1,2 -2,5 -3,7zm3 -8l3 -7c-1,2 -2,5 -3,7zm-11 23l3 -7c-1,2 -2,5 -3,7zm4 -7l3 -7c-1,2 -2,4 -3,7zm-13 21l4 -6c-2,2 -3,4 -4,6zm4 -7l4 -6c-1,2 -2,4 -4,6zm-5 8l0 0 -4 6c1,-2 3,-4 4,-6z"/>
   <path class="fil2" d="M272 112l0 21 0 2 -40 20 -63 32c-2,1 -4,3 -5,4 -2,2 -3,3 -4,5l0 1 0 0 0 0 0 0 0 0 0 0 0 0 0 0 0 0 0 0 0 0 0 0 -1 0 0 0 0 0 0 0 0 0 0 0 0 0 0 0 0 0 0 0 0 0 0 0 0 0 0 0 0 0 0 1 0 0 0 0 0 0 0 0 0 0 0 0 0 0 0 0 0 0 0 0 0 0 0 0 0 0 0 0c0,1 -1,2 -1,3l0 0 0 0 0 0 0 0 0 0 0 0 0 0 0 0c0,0 0,1 0,1 0,1 -1,3 -1,4l0 0 0 0 0 0 0 0 0 0 0 0 0 0c0,0 0,1 0,1l0 2 0 6 0 0 11 5 0 0 0 0 1 0 20 11 0 0 0 0 43 21 62 31c2,1 4,2 5,2l0 0 0 0c2,1 4,1 6,1 2,0 3,0 5,0 2,-1 3,-2 5,-2l0 0 0 0 0 -1 0 0 0 0 62 -31 43 -21 0 32 -57 28 -58 30 -59 -30 -49 -24 -8 -4 -14 -7 -18 -9 0 0 0 0 0 25c0,0 0,0 0,1l0 2 0 64 0 2 0 9 11 5c0,0 0,1 1,1l0 0 10 5 53 26 63 32c1,1 3,1 4,2l0 0c2,0 4,0 6,0 2,0 3,0 5,0 2,-1 3,-1 5,-2l0 0 14 -7 0 0 48 -25 43 -21 0 32 -57 28 -58 30 0 33 0 12 0 28 0 5 0 0c126,0 229,-103 229,-229 0,-100 -64,-185 -154,-216l3 -9 0 0c0,-1 1,-3 0,-4 -1,-4 -5,-7 -9,-6l-25 6 0 0 -25 5c-2,0 -3,1 -4,2 -3,3 -4,8 -1,11l18 19 0 0 0 0 17 19c1,1 2,2 4,3 4,1 8,-1 9,-5l3 -10c76,27 131,100 131,185 0,97 -71,177 -163,193l0 -23 39 -20 63 -31c3,-2 6,-4 9,-8 2,-3 3,-7 3,-11l0 -64 0 -2 0 0 0 -2 0 0 0 -10 0 -13 -20 10 -12 6 0 0 -16 8 -41 21 -58 29 -59 -29 -57 -29 0 -3 0 0 0 -29 43 22 63 31c1,1 3,2 4,2l0 0c2,1 4,1 6,1 2,0 3,0 5,-1 2,0 3,-1 5,-2l0 0 14 -7 0 0 48 -24 11 -5 0 0 17 -9 15 -8 9 -4 11 -5 0 0 2 -1 2 -1 8 -5 0 -7 0 -1c0,-1 0,-1 0,-1l0 -64 0 -2c0,-1 0,-1 0,-1l0 -1 0 0 0 -1 0 0c0,-3 -1,-6 -2,-8 -2,-3 -4,-6 -7,-8 -1,0 -2,0 -2,-1 -2,-1 -4,0 -6,1l-32 16 0 0 0 0 -40 20 -58 29 -59 -29 -39 -20 20 -10 0 0 20 -10 58 -30 0 -20 0 -13 0 -12 0 0 0 -33 0 0 0 0c-2,0 -4,0 -6,0l0 0c-2,0 -4,0 -6,0l0 0c-2,0 -4,0 -5,1l-2 0c-1,0 -2,0 -3,0 -1,0 -2,0 -3,0 -1,0 -2,0 -3,1 -1,0 -2,0 -3,0l-2 0c-111,16 -196,112 -196,227 0,100 64,185 153,216l-3 9 0 0c0,1 0,2 0,4 1,4 5,6 9,5l26 -5 0 0 25 -6c1,0 3,-1 4,-2 3,-2 3,-7 0,-10l-17 -20 0 0 0 0 -17 -18c-1,-2 -3,-3 -4,-3 -4,-1 -8,1 -10,5l-3 9c-76,-27 -130,-99 -130,-184 0,-97 70,-178 163,-193z"/>
  </g>
 </g>
</svg>
