<?xml version="1.0" encoding="UTF-8"?>
<!DOCTYPE svg PUBLIC "-//W3C//DTD SVG 1.1//EN" "http://www.w3.org/Graphics/SVG/1.1/DTD/svg11.dtd">
<!-- Creator: CorelDRAW X7 -->
<svg xmlns="http://www.w3.org/2000/svg" xml:space="preserve" width="21.6746mm" height="21.6746mm" version="1.1" style="shape-rendering:geometricPrecision; text-rendering:geometricPrecision; image-rendering:optimizeQuality; fill-rule:evenodd; clip-rule:evenodd"
viewBox="0 0 2167 2167"
 xmlns:xlink="http://www.w3.org/1999/xlink">
 <defs>
  <style type="text/css">
   <![CDATA[
    .fil2 {fill:#FEFEFE}
    .fil0 {fill:#1393D2}
    .fil1 {fill:#0083C4}
   ]]>
  </style>
 </defs>
 <g id="Layer_x0020_1">
  <metadata id="CorelCorpID_0Corel-Layer"/>
  <g id="_924205536">
   <rect class="fil0" width="2167" height="2167" rx="297" ry="297"/>
   <path class="fil1" d="M553 634l-16 19c5,-6 10,-13 16,-19zm731 1533l-987 0c-163,0 -297,-133 -297,-297l0 -700 426 -565c127,-173 319,-294 541,-326l7 -1c4,-1 8,-1 12,-2 3,0 6,0 10,-1 3,0 6,0 9,-1 4,0 9,-1 13,-1l6 0c5,-1 11,-1 16,-1l3 -1c6,0 13,0 19,0l1 0c7,-1 14,-1 21,-1l0 0 0 0 0 95 49 -65c1,-1 2,-3 4,-4 4,-4 9,-6 14,-7l89 -19 0 0 91 -20c14,-3 29,6 32,21 1,4 1,9 -1,14l0 0 -10 31c317,111 545,413 545,768 0,196 -70,377 -186,517l-427 566zm-751 -1509l-14 19c4,-6 9,-13 14,-19zm60 -68l-17 18c5,-6 11,-12 17,-18zm-21 21l-17 20c6,-7 12,-13 17,-20zm65 -61l-19 16c6,-5 13,-11 19,-16zm-22 19l-20 19c7,-7 13,-13 20,-19zm70 -56l-21 15c7,-5 14,-10 21,-15zm-23 17l-22 17c7,-5 14,-11 22,-17zm74 -49l-23 14c7,-5 15,-10 23,-14zm-25 15l-23 15c8,-5 16,-11 23,-15zm79 -43l-25 12c8,-4 16,-8 25,-12zm-27 13l-24 13c8,-5 16,-9 24,-13zm84 -37l-27 10c9,-3 18,-7 27,-10zm-30 11l-24 11c8,-3 16,-7 24,-11zm89 -29l-29 8c10,-3 19,-6 29,-8zm-31 9l-26 8c8,-3 17,-6 26,-8zm92 -23l-29 6c9,-2 19,-4 29,-6zm-32 7l-28 6c9,-2 18,-4 28,-6zm431 43l-24 -10c8,3 16,7 24,10zm-24 -10l-25 -9c8,3 16,6 25,9zm72 34l-24 -12c8,4 16,8 24,12zm-24 -12l-24 -12c8,4 16,8 24,12zm70 39l-23 -14c8,4 15,9 23,14zm-23 -14l-23 -13c8,4 16,8 23,13zm66 44l-21 -16c7,5 14,11 21,16zm-21 -16l-22 -14c7,5 14,9 22,14zm62 49l-20 -17c6,6 13,11 20,17zm-20 -17l-21 -16c7,5 14,11 21,16zm58 53l-19 -18c6,6 13,12 19,18zm-19 -18l-19 -18c6,6 13,12 19,18zm54 57l-17 -19c6,6 12,13 17,19zm-17 -19l-18 -20c6,7 12,13 18,20zm49 61l-15 -21c5,7 10,14 15,21zm-15 -21l-17 -21c6,7 11,14 17,21zm45 65l-15 -22c5,7 10,15 15,22zm-15 -22l-15 -22c6,7 11,14 15,22zm40 68l-12 -23c4,8 8,15 12,23zm-12 -23l-13 -23c4,8 9,15 13,23zm35 72l-11 -25c4,8 7,16 11,25zm-11 -25l-12 -24c4,8 8,16 12,24zm29 75l-8 -25c3,8 6,16 8,25zm-8 -25l-10 -25c3,8 6,16 10,25zm23 77l-7 -26c3,8 5,17 7,26zm-7 -26l-8 -26c3,8 6,17 8,26zm18 80l-5 -27c2,8 4,17 5,27zm-5 -27l-6 -27c2,9 4,18 6,27zm12 82l-3 -28c1,9 2,18 3,28zm-3 -28l-4 -27c2,9 3,18 4,27zm5 84l-1 -29c1,10 1,19 1,29zm-1 -29l-1 -27c0,9 1,18 1,27zm-2 92l2 -30c0,10 -1,20 -2,30zm2 -33l1 -30c0,10 0,20 -1,30zm-10 95l4 -29c-1,9 -3,19 -4,29zm5 -31l3 -29c-1,10 -2,20 -3,29zm-19 91l7 -28c-2,9 -4,19 -7,28zm7 -29l6 -28c-2,9 -4,18 -6,28zm-26 88l0 0c3,-9 6,-18 9,-27l-9 27zm10 -30l8 -27c-2,9 -5,18 -8,27zm-33 85l11 -25c-4,8 -8,17 -11,25zm12 -28l10 -26c-3,9 -6,17 -10,26zm-41 81l13 -23c-4,7 -8,15 -13,23zm15 -26l12 -23c-4,8 -8,16 -12,23zm-47 76l14 -21c-5,7 -9,14 -14,21zm16 -24l14 -23c-4,8 -9,15 -14,23zm-18 27l0 0 -16 21c5,-7 11,-14 16,-21z"/>
   <path class="fil2" d="M967 397l0 75 0 8 -142 72 -225 114c-7,4 -13,8 -19,14 -5,5 -9,11 -13,19l0 0 0 0 0 0 0 0 0 0 0 1 -1 0 0 0 0 0 0 0 0 0 0 0 0 0 0 0 0 1 0 0 0 0 0 0 0 0 0 0 0 1 0 0 -1 0 0 0 0 0 0 0 0 0 0 0 0 0 0 1 0 0 0 0 0 0 0 0 0 0 0 0 0 0 0 0 0 1 0 0 0 0 0 0c-2,3 -3,7 -4,10l0 0 0 1 0 0 0 0 0 0 0 0 0 0 0 0c0,1 -1,2 -1,3 -1,5 -1,9 -1,14l0 0 0 0 0 0 0 0 0 1 0 0 0 0c0,1 0,2 0,2l0 9 0 19 0 0 36 19 0 0 0 0 5 2 72 36 0 0 0 0 153 77 221 111c5,3 11,5 16,7l0 0 1 0c6,2 13,3 20,3 6,0 13,-1 19,-3 5,-1 11,-4 16,-6l1 -1 0 0 1 0 0 0 0 -1 221 -110 152 -77 0 115 -203 101 -207 104 -208 -104 -174 -87 -29 -14 -51 -26 -62 -31 0 0 0 0 0 88c0,1 0,2 0,4l0 8 0 226 0 9 0 31 36 18c1,1 3,2 5,3l0 0 35 18 190 95 221 111c5,3 11,5 16,7l0 0c7,2 14,3 21,3 6,0 13,-1 19,-3 5,-1 11,-4 16,-6l1 -1 49 -24 0 -1 173 -86 152 -77 0 113 -203 102 -207 104 0 119 0 41 0 102 0 15 0 0c449,0 813,-364 813,-813 0,-356 -228,-658 -545,-768l10 -32 0 0c2,-4 2,-9 1,-14 -3,-14 -18,-24 -33,-20l-90 19 0 1 -89 19c-5,1 -10,3 -14,7 -11,10 -12,27 -2,38l62 69 0 0 0 0 61 66c3,5 8,8 14,10 14,5 29,-3 34,-18l11 -34c270,96 463,354 463,657 0,344 -250,631 -579,686l0 -82 141 -70 221 -111c13,-6 24,-15 32,-27 8,-12 13,-26 13,-41l0 -226 0 -8 0 -1 0 -5 0 0 0 -37 0 -45 -70 36 -44 21 0 0 -57 29 -146 73 -207 104 -208 -104 -203 -101 0 -13 0 0 0 -101 153 77 221 111c5,3 11,5 16,7l0 0c7,2 14,3 21,3 6,0 13,-1 19,-3 5,-1 11,-4 16,-6l1 -1 49 -24 0 0 173 -87 38 -19 0 0 60 -31 54 -27 33 -16 36 -18 0 0 7 -4 7 -4 31 -15 0 -26 0 -4c0,-2 0,-3 0,-4l0 -226 0 -9c0,-1 0,-2 0,-4l0 -1 0 -3 -1 -2 0 0c-1,-10 -4,-19 -8,-28 -6,-11 -15,-20 -25,-27 -2,-1 -4,-3 -7,-4 -8,-4 -13,-3 -20,1l-115 58 0 0 0 0 -141 70 -207 105 -208 -105 -140 -70 71 -36 0 0 70 -36 207 -106 0 -72 0 -46 0 -42 0 0 0 -117 0 0 0 0c-7,0 -14,0 -21,0l-1 0c-6,0 -13,1 -19,1l-3 0c-5,0 -11,1 -16,1l-6 1c-4,0 -9,0 -13,1 -3,0 -6,0 -9,1 -4,0 -7,1 -10,1 -4,0 -8,1 -12,1l-7 1c-394,57 -697,396 -697,806 0,355 228,657 545,768l-10 31 0 0c-1,5 -1,9 0,14 3,15 17,24 32,21l91 -20 0 0 89 -20c5,0 10,-3 14,-6 11,-10 12,-27 2,-38l-63 -69 0 0 0 0 -61 -67c-3,-4 -8,-8 -13,-10 -14,-4 -30,4 -34,18l-11 34c-270,-96 -463,-353 -463,-656 0,-345 250,-631 579,-687z"/>
  </g>
 </g>
</svg>
